                                                                        S      1
,,10HButton Top,10HButton Top,7Hunknown,7Hunknown,32,38,7,99,15,,1.,2,2HG      1
MM,1,0.08,15H20190424.150035,0.01,10000.,14Hcomputerboy586,7Hunknown,11,G      2
0,15H20190417.160310;                                                   G      3
     186       1                                                00000000D      1
     186             -77       1       0                               0D      2
     514       2                                                00010000D      3
     514                       1       1                               0D      4
     510       3                                                00010000D      5
     510             -77       1       1                               0D      6
     510       4                                                00010000D      7
     510             -77       1       1                               0D      8
     510       5                                                00010000D      9
     510             -77       1       1                               0D     10
     510       6                                                00010000D     11
     510             -77       1       1                               0D     12
     510       7                                                00010000D     13
     510             -77       1       1                               0D     14
     510       8                                                00010000D     15
     510             -77       1       1                               0D     16
     508       9                                                00010000D     17
     508                       1       1                               0D     18
     508      10                                                00010000D     19
     508                       1       1                               0D     20
     508      11                                                00010000D     21
     508                       1       1                               0D     22
     508      12                                                00010000D     23
     508                       1       1                               0D     24
     508      13                                                00010000D     25
     508                       2       1                               0D     26
     508      15                                                00010000D     27
     508                       1       1                               0D     28
     508      16                                                00010000D     29
     508                       1       1                               0D     30
     508      17                                                00010000D     31
     508                       1       1                               0D     32
     508      18                                                00010000D     33
     508                       1       1                               0D     34
     126      19                                                00010000D     35
     126       0               5       0                               0D     36
     126      24                                                00010000D     37
     126       0               7       0                               0D     38
     126      31                                                00010000D     39
     126       0               2       0                               0D     40
     126      33                                                00010000D     41
     126       0               9       0                               0D     42
     126      42                                                00010000D     43
     126       0              10       0                               0D     44
     126      52                                                00010000D     45
     126       0               2       0                               0D     46
     126      54                                                00010000D     47
     126       0              10       0                               0D     48
     126      64                                                00010000D     49
     126       0               5       0                               0D     50
     126      69                                                00010000D     51
     126       0               7       0                               0D     52
     126      76                                                00010000D     53
     126       0               2       0                               0D     54
     126      78                                                00010000D     55
     126       0               5       0                               0D     56
     126      83                                                00010000D     57
     126       0               7       0                               0D     58
     128      90                                                00010000D     59
     128       0     -77      14       0                               0D     60
     128     104                                                00010000D     61
     128       0     -77      11       0                               0D     62
     128     115                                                00010000D     63
     128       0     -77       3       0                               0D     64
     128     118                                                00010000D     65
     128       0     -77      11       0                               0D     66
     128     129                                                00010000D     67
     128       0     -77       3       0                               0D     68
     128     132                                                00010000D     69
     128       0     -77       3       0                               0D     70
     502     135                                                00010000D     71
     502                       3       1                               0D     72
     504     138                                                00010001D     73
     504                       3       1                               0D     74
     406     141                                                00000000D     75
     406                       1      15                               0D     76
     314     142                                                00000200D     77
     314                       2       0                               0D     78
186,3,1,0,0,1,75;                                                      1P      1
514,6,5,1,7,1,9,1,11,1,13,1,15,1;                                      3P      2
510,59,1,1,17;                                                         5P      3
510,61,1,1,19;                                                         7P      4
510,63,2,1,21,23;                                                      9P      5
510,65,1,1,25;                                                        11P      6
510,67,2,1,27,29;                                                     13P      7
510,69,2,1,31,33;                                                     15P      8
508,5,0,73,1,0,0,0,73,2,0,0,0,73,3,1,0,0,73,4,0,0,0,73,3,0,0;         17P      9
508,4,0,73,5,0,0,0,73,6,1,0,0,73,7,0,0,0,73,6,0,0;                    19P     10
508,1,0,73,5,1,0;                                                     21P     11
508,2,0,73,1,1,0,0,73,2,1,0;                                          23P     12
508,6,0,73,8,0,0,0,73,9,0,0,0,73,10,1,0,0,73,11,0,0,0,73,12,0,0,      25P     13
0,73,10,0,0;                                                          25P     14
508,2,0,73,11,1,0,0,73,12,1,0;                                        27P     15
508,1,0,73,4,1,0;                                                     29P     16
508,2,0,73,8,1,0,0,73,9,1,0;                                          31P     17
508,1,0,73,7,1,0;                                                     33P     18
126,4,2,0,0,0,0,0.,0.,0.,1.5707963267949,1.5707963267949,             35P     19
3.14159265358979,3.14159265358979,3.14159265358979,1.,                35P     20
0.707106781186548,1.,0.707106781186548,1.,15.,0.,10.,15.,-15.,        35P     21
10.,1.3885073285664D-16,-15.,10.,-15.,-15.,10.,-15.,                  35P     22
-1.83697019872103D-15,10.,0.,3.14159265358979,0.,0.,0.;               35P     23
126,4,2,0,0,0,0,3.14159265358979,3.14159265358979,                    37P     24
3.14159265358979,4.71238898038469,4.71238898038469,                   37P     25
6.28318530717959,6.28318530717959,6.28318530717959,1.,                37P     26
0.707106781186547,1.,0.707106781186548,1.,-15.,                       37P     27
-1.83697019872103D-15,10.,-15.,15.,10.,-3.53508966458542D-15,         37P     28
15.,10.,15.,15.,10.,15.,3.67394039744206D-15,10.,                     37P     29
3.14159265358979,6.28318530717959,0.,0.,0.;                           37P     30
126,1,1,0,0,1,0,-1.5,-1.5,-0.833333333333333,-0.833333333333333,      39P     31
1.,1.,-15.,0.,10.,-15.,0.,0.,-1.5,-0.833333333333333,0.,0.,0.;        39P     32
126,8,2,0,1,0,0,-3.14159265358979,-3.14159265358979,                  41P     33
-3.14159265358979,-1.5707963267949,-1.5707963267949,0.,0.,            41P     34
1.5707963267949,1.5707963267949,3.14159265358979,                     41P     35
3.14159265358979,3.14159265358979,1.,0.707106781186548,1.,            41P     36
0.707106781186548,1.,0.707106781186548,1.,0.707106781186548,1.,       41P     37
-15.,-1.83697019872103D-15,0.,-15.,-15.,0.,1.3885073285664D-16,       41P     38
-15.,0.,15.,-15.,0.,15.,0.,0.,15.,15.,0.,1.3885073285664D-16,         41P     39
15.,0.,-15.,15.,0.,-15.,1.83697019872103D-15,0.,                      41P     40
-3.14159265358979,3.14159265358979,0.,0.,0.;                          41P     41
126,8,2,0,1,0,0,-3.14159265358979,-3.14159265358979,                  43P     42
-3.14159265358979,-1.5707963267949,-1.5707963267949,0.,0.,            43P     43
1.5707963267949,1.5707963267949,3.14159265358979,                     43P     44
3.14159265358979,3.14159265358979,1.,0.707106781186548,1.,            43P     45
0.707106781186547,1.,0.707106781186547,1.,0.707106781186548,1.,       43P     46
20.,2.44929359829471D-15,10.,20.,20.,10.,-1.22464679914735D-15,       43P     47
20.,10.,-20.,20.,10.,-20.,0.,10.,-20.,-20.,10.,                       43P     48
-1.22464679914735D-15,-20.,10.,20.,-20.,10.,20.,                      43P     49
-2.44929359829471D-15,10.,-3.14159265358979,3.14159265358979,0.,      43P     50
0.,0.;                                                                43P     51
126,1,1,0,0,1,0,-0.25,-0.25,0.,0.,1.,1.,20.,0.,10.,20.,0.,5.,         45P     52
-0.25,0.,0.,0.,0.;                                                    45P     53
126,8,2,0,1,0,0,-3.14159265358979,-3.14159265358979,                  47P     54
-3.14159265358979,-1.5707963267949,-1.5707963267949,0.,0.,            47P     55
1.5707963267949,1.5707963267949,3.14159265358979,                     47P     56
3.14159265358979,3.14159265358979,1.,0.707106781186548,1.,            47P     57
0.707106781186547,1.,0.707106781186547,1.,0.707106781186548,1.,       47P     58
20.,-2.44929359829471D-15,5.,20.,-20.,5.,-1.22464679914735D-15,       47P     59
-20.,5.,-20.,-20.,5.,-20.,0.,5.,-20.,20.,5.,                          47P     60
-1.22464679914735D-15,20.,5.,20.,20.,5.,20.,                          47P     61
2.44929359829471D-15,5.,-3.14159265358979,3.14159265358979,0.,        47P     62
0.,0.;                                                                47P     63
126,4,2,0,0,0,0,0.,0.,0.,1.5707963267949,1.5707963267949,             49P     64
3.14159265358979,3.14159265358979,3.14159265358979,1.,                49P     65
0.707106781186547,1.,0.707106781186548,1.,50.,0.,5.,50.,50.,5.,       49P     66
3.06161699786838D-15,50.,5.,-50.,50.,5.,-50.,                         49P     67
6.12323399573677D-15,5.,0.,3.14159265358979,0.,0.,0.;                 49P     68
126,4,2,0,0,0,0,3.14159265358979,3.14159265358979,                    51P     69
3.14159265358979,4.71238898038469,4.71238898038469,                   51P     70
6.28318530717959,6.28318530717959,6.28318530717959,1.,                51P     71
0.707106781186548,1.,0.707106781186548,1.,-50.,                       51P     72
6.12323399573677D-15,5.,-50.,-50.,5.,-9.18485099360515D-15,-50.,      51P     73
5.,50.,-50.,5.,50.,-1.22464679914735D-14,5.,3.14159265358979,         51P     74
6.28318530717959,0.,0.,0.;                                            51P     75
126,1,1,0,0,1,0,-0.05,-0.05,0.05,0.05,1.,1.,-50.,0.,5.,-50.,0.,       53P     76
0.,-0.05,0.05,0.,0.,0.;                                               53P     77
126,4,2,0,0,0,0,0.,0.,0.,1.5707963267949,1.5707963267949,             55P     78
3.14159265358979,3.14159265358979,3.14159265358979,1.,                55P     79
0.707106781186547,1.,0.707106781186548,1.,50.,0.,0.,50.,-50.,0.,      55P     80
3.06161699786838D-15,-50.,0.,-50.,-50.,0.,-50.,                       55P     81
-6.12323399573677D-15,0.,0.,3.14159265358979,0.,0.,0.;                55P     82
126,4,2,0,0,0,0,3.14159265358979,3.14159265358979,                    57P     83
3.14159265358979,4.71238898038469,4.71238898038469,                   57P     84
6.28318530717959,6.28318530717959,6.28318530717959,1.,                57P     85
0.707106781186548,1.,0.707106781186548,1.,-50.,                       57P     86
-6.12323399573677D-15,0.,-50.,50.,0.,-9.18485099360515D-15,50.,       57P     87
0.,50.,50.,0.,50.,1.22464679914735D-14,0.,3.14159265358979,           57P     88
6.28318530717959,0.,0.,0.;                                            57P     89
128,1,8,1,2,0,1,0,0,1,-1.5,-1.5,-0.833333333333333,                   59P     90
-0.833333333333333,-3.14159265358979,-3.14159265358979,               59P     91
-3.14159265358979,-1.5707963267949,-1.5707963267949,0.,0.,            59P     92
1.5707963267949,1.5707963267949,3.14159265358979,                     59P     93
3.14159265358979,3.14159265358979,1.,1.,0.707106781186548,            59P     94
0.707106781186548,1.,1.,0.707106781186548,0.707106781186548,1.,       59P     95
1.,0.707106781186548,0.707106781186548,1.,1.,0.707106781186548,       59P     96
0.707106781186548,1.,1.,-15.,0.,10.,-15.,0.,0.,-15.,15.,10.,          59P     97
-15.,15.,0.,-7.79634366503875D-16,15.,10.,-7.79634366503875D-16,      59P     98
15.,0.,15.,15.,10.,15.,15.,0.,15.,0.,10.,15.,0.,0.,15.,-15.,10.,      59P     99
15.,-15.,0.,-7.79634366503875D-16,-15.,10.,                           59P    100
-7.79634366503875D-16,-15.,0.,-15.,-15.,10.,-15.,-15.,0.,-15.,        59P    101
0.,10.,-15.,0.,0.,-1.5,-0.833333333333333,-3.14159265358979,          59P    102
3.14159265358979;                                                     59P    103
128,1,8,1,2,0,1,0,0,1,0.,0.,0.25,0.25,-3.14159265358979,              61P    104
-3.14159265358979,-3.14159265358979,-1.5707963267949,                 61P    105
-1.5707963267949,0.,0.,1.5707963267949,1.5707963267949,               61P    106
3.14159265358979,3.14159265358979,3.14159265358979,1.,1.,             61P    107
0.707106781186548,0.707106781186548,1.,1.,0.707106781186548,          61P    108
0.707106781186548,1.,1.,0.707106781186548,0.707106781186548,1.,       61P    109
1.,0.707106781186548,0.707106781186548,1.,1.,20.,0.,10.,20.,0.,       61P    110
5.,20.,20.,10.,20.,20.,5.,0.,20.,10.,0.,20.,5.,-20.,20.,10.,          61P    111
-20.,20.,5.,-20.,0.,10.,-20.,0.,5.,-20.,-20.,10.,-20.,-20.,5.,        61P    112
0.,-20.,10.,0.,-20.,5.,20.,-20.,10.,20.,-20.,5.,20.,0.,10.,20.,       61P    113
0.,5.,0.,0.25,-3.14159265358979,3.14159265358979;                     61P    114
128,1,1,1,1,0,0,1,0,0,-2.001,-2.001,2.001,2.001,-2.001,-2.001,        63P    115
2.001,2.001,1.,1.,1.,1.,20.01,20.01,10.,-20.01,20.01,10.,20.01,       63P    116
-20.01,10.,-20.01,-20.01,10.,-2.001,2.001,-2.001,2.001;               63P    117
128,1,8,1,2,0,1,0,0,1,-0.05,-0.05,0.05,0.05,-3.14159265358979,        65P    118
-3.14159265358979,-3.14159265358979,-1.5707963267949,                 65P    119
-1.5707963267949,0.,0.,1.5707963267949,1.5707963267949,               65P    120
3.14159265358979,3.14159265358979,3.14159265358979,1.,1.,             65P    121
0.707106781186548,0.707106781186548,1.,1.,0.707106781186548,          65P    122
0.707106781186548,1.,1.,0.707106781186548,0.707106781186548,1.,       65P    123
1.,0.707106781186548,0.707106781186548,1.,1.,-50.,0.,5.,-50.,0.,      65P    124
0.,-50.,-50.,5.,-50.,-50.,0.,0.,-50.,5.,0.,-50.,0.,50.,-50.,5.,       65P    125
50.,-50.,0.,50.,0.,5.,50.,0.,0.,50.,50.,5.,50.,50.,0.,0.,50.,5.,      65P    126
0.,50.,0.,-50.,50.,5.,-50.,50.,0.,-50.,0.,5.,-50.,0.,0.,-0.05,        65P    127
0.05,-3.14159265358979,3.14159265358979;                              65P    128
128,1,1,1,1,0,0,1,0,0,-5.001,-5.001,5.001,5.001,-5.001,-5.001,        67P    129
5.001,5.001,1.,1.,1.,1.,50.01,-50.01,0.,-50.01,-50.01,0.,50.01,       67P    130
50.01,0.,-50.01,50.01,0.,-5.001,5.001,-5.001,5.001;                   67P    131
128,1,1,1,1,0,0,1,0,0,-5.001,-5.001,5.001,5.001,-5.001,-5.001,        69P    132
5.001,5.001,1.,1.,1.,1.,-50.01,-50.01,5.,50.01,-50.01,5.,-50.01,      69P    133
50.01,5.,50.01,50.01,5.,-5.001,5.001,-5.001,5.001;                    69P    134
502,9,15.,0.,10.,-15.,0.,10.,-15.,-1.83697019872103D-15,0.,20.,       71P    135
2.44929359829471D-15,10.,20.,2.44929359829471D-15,5.,50.,0.,5.,       71P    136
-50.,0.,5.,-50.,0.,0.,50.,0.,0.;                                      71P    137
504,12,35,71,1,71,2,37,71,2,71,1,39,71,2,71,3,41,71,3,71,3,43,        73P    138
71,4,71,4,45,71,4,71,5,47,71,5,71,5,49,71,6,71,7,51,71,7,71,6,        73P    139
53,71,7,71,8,55,71,9,71,8,57,71,8,71,9;                               73P    140
406,1,5HBody2;                                                        75P    141
314,62.7450980392157,62.7450980392157,62.7450980392157,13HSteel       77P    142
- Satin;                                                              77P    143
S      1G      3D     78P    143                                        T      1
