                                                                        S      1
,,14HGeneric Top v2,14HGeneric Top v2,7Hunknown,7Hunknown,32,38,7,99,15,G      1
,1.,2,2HMM,1,0.08,15H20190424.150049,0.01,10000.,14Hcomputerboy586,7HunkG      2
nown,11,0,15H20190417.120913;                                           G      3
     186       1                                                00000000D      1
     186             -39       1       0                               0D      2
     514       2                                                00010000D      3
     514                       1       1                               0D      4
     510       3                                                00010000D      5
     510             -39       1       1                               0D      6
     510       4                                                00010000D      7
     510             -39       1       1                               0D      8
     510       5                                                00010000D      9
     510             -39       1       1                               0D     10
     508       6                                                00010000D     11
     508                       2       1                               0D     12
     508       8                                                00010000D     13
     508                       1       1                               0D     14
     508       9                                                00010000D     15
     508                       1       1                               0D     16
     126      10                                                00010000D     17
     126       0               5       0                               0D     18
     126      15                                                00010000D     19
     126       0               7       0                               0D     20
     126      22                                                00010000D     21
     126       0               2       0                               0D     22
     126      24                                                00010000D     23
     126       0               5       0                               0D     24
     126      29                                                00010000D     25
     126       0               7       0                               0D     26
     128      36                                                00010000D     27
     128       0     -39      11       0                               0D     28
     128      47                                                00010000D     29
     128       0     -39       3       0                               0D     30
     128      50                                                00010000D     31
     128       0     -39       3       0                               0D     32
     502      53                                                00010000D     33
     502                       1       1                               0D     34
     504      54                                                00010001D     35
     504                       2       1                               0D     36
     406      56                                                00000000D     37
     406                       1      15                               0D     38
     314      57                                                00000200D     39
     314                       2       0                               0D     40
186,3,1,0,0,1,37;                                                      1P      1
514,3,5,1,7,1,9,1;                                                     3P      2
510,27,1,1,11;                                                         5P      3
510,29,1,1,13;                                                         7P      4
510,31,1,1,15;                                                         9P      5
508,6,0,35,1,0,0,0,35,2,0,0,0,35,3,1,0,0,35,4,0,0,0,35,5,0,0,0,       11P      6
35,3,0,0;                                                             11P      7
508,2,0,35,4,1,0,0,35,5,1,0;                                          13P      8
508,2,0,35,1,1,0,0,35,2,1,0;                                          15P      9
126,4,2,0,0,0,0,0.,0.,0.,1.5707963267949,1.5707963267949,             17P     10
3.14159265358979,3.14159265358979,3.14159265358979,1.,                17P     11
0.707106781186547,1.,0.707106781186548,1.,50.,0.,5.,50.,50.,5.,       17P     12
3.06161699786838D-15,50.,5.,-50.,50.,5.,-50.,                         17P     13
6.12323399573677D-15,5.,0.,3.14159265358979,0.,0.,0.;                 17P     14
126,4,2,0,0,0,0,3.14159265358979,3.14159265358979,                    19P     15
3.14159265358979,4.71238898038469,4.71238898038469,                   19P     16
6.28318530717959,6.28318530717959,6.28318530717959,1.,                19P     17
0.707106781186548,1.,0.707106781186548,1.,-50.,                       19P     18
6.12323399573677D-15,5.,-50.,-50.,5.,-9.18485099360515D-15,-50.,      19P     19
5.,50.,-50.,5.,50.,-1.22464679914735D-14,5.,3.14159265358979,         19P     20
6.28318530717959,0.,0.,0.;                                            19P     21
126,1,1,0,0,1,0,-0.05,-0.05,0.05,0.05,1.,1.,-50.,0.,5.,-50.,0.,       21P     22
0.,-0.05,0.05,0.,0.,0.;                                               21P     23
126,4,2,0,0,0,0,0.,0.,0.,1.5707963267949,1.5707963267949,             23P     24
3.14159265358979,3.14159265358979,3.14159265358979,1.,                23P     25
0.707106781186547,1.,0.707106781186548,1.,50.,0.,0.,50.,-50.,0.,      23P     26
3.06161699786838D-15,-50.,0.,-50.,-50.,0.,-50.,                       23P     27
-6.12323399573677D-15,0.,0.,3.14159265358979,0.,0.,0.;                23P     28
126,4,2,0,0,0,0,3.14159265358979,3.14159265358979,                    25P     29
3.14159265358979,4.71238898038469,4.71238898038469,                   25P     30
6.28318530717959,6.28318530717959,6.28318530717959,1.,                25P     31
0.707106781186548,1.,0.707106781186548,1.,-50.,                       25P     32
-6.12323399573677D-15,0.,-50.,50.,0.,-9.18485099360515D-15,50.,       25P     33
0.,50.,50.,0.,50.,1.22464679914735D-14,0.,3.14159265358979,           25P     34
6.28318530717959,0.,0.,0.;                                            25P     35
128,1,8,1,2,0,1,0,0,1,-0.05,-0.05,0.05,0.05,-3.14159265358979,        27P     36
-3.14159265358979,-3.14159265358979,-1.5707963267949,                 27P     37
-1.5707963267949,0.,0.,1.5707963267949,1.5707963267949,               27P     38
3.14159265358979,3.14159265358979,3.14159265358979,1.,1.,             27P     39
0.707106781186548,0.707106781186548,1.,1.,0.707106781186548,          27P     40
0.707106781186548,1.,1.,0.707106781186548,0.707106781186548,1.,       27P     41
1.,0.707106781186548,0.707106781186548,1.,1.,-50.,0.,5.,-50.,0.,      27P     42
0.,-50.,-50.,5.,-50.,-50.,0.,0.,-50.,5.,0.,-50.,0.,50.,-50.,5.,       27P     43
50.,-50.,0.,50.,0.,5.,50.,0.,0.,50.,50.,5.,50.,50.,0.,0.,50.,5.,      27P     44
0.,50.,0.,-50.,50.,5.,-50.,50.,0.,-50.,0.,5.,-50.,0.,0.,-0.05,        27P     45
0.05,-3.14159265358979,3.14159265358979;                              27P     46
128,1,1,1,1,0,0,1,0,0,-5.001,-5.001,5.001,5.001,-5.001,-5.001,        29P     47
5.001,5.001,1.,1.,1.,1.,50.01,-50.01,0.,-50.01,-50.01,0.,50.01,       29P     48
50.01,0.,-50.01,50.01,0.,-5.001,5.001,-5.001,5.001;                   29P     49
128,1,1,1,1,0,0,1,0,0,-5.001,-5.001,5.001,5.001,-5.001,-5.001,        31P     50
5.001,5.001,1.,1.,1.,1.,-50.01,-50.01,5.,50.01,-50.01,5.,-50.01,      31P     51
50.01,5.,50.01,50.01,5.,-5.001,5.001,-5.001,5.001;                    31P     52
502,4,50.,0.,5.,-50.,0.,5.,-50.,0.,0.,50.,0.,0.;                      33P     53
504,5,17,33,1,33,2,19,33,2,33,1,21,33,2,33,3,23,33,4,33,3,25,33,      35P     54
3,33,4;                                                               35P     55
406,1,5HBody2;                                                        37P     56
314,62.7450980392157,62.7450980392157,62.7450980392157,13HSteel       39P     57
- Satin;                                                              39P     58
S      1G      3D     40P     58                                        T      1
