                                                                        S      1
,,10HMagnet Top,10HMagnet Top,7Hunknown,7Hunknown,32,38,7,99,15,,1.,2,2HG      1
MM,1,0.08,15H20190424.150105,0.01,10000.,14Hcomputerboy586,7Hunknown,11,G      2
0,15H20190419.135151;                                                   G      3
     186       1                                                00000000D      1
     186             -57       1       0                               0D      2
     514       2                                                00010000D      3
     514                       1       1                               0D      4
     510       3                                                00010000D      5
     510             -57       1       1                               0D      6
     510       4                                                00010000D      7
     510             -57       1       1                               0D      8
     510       5                                                00010000D      9
     510             -57       1       1                               0D     10
     510       6                                                00010000D     11
     510             -57       1       1                               0D     12
     508       7                                                00010000D     13
     508                       1       1                               0D     14
     508       8                                                00010000D     15
     508                       2       1                               0D     16
     508      10                                                00010000D     17
     508                       1       1                               0D     18
     508      11                                                00010000D     19
     508                       1       1                               0D     20
     508      12                                                00010000D     21
     508                       1       1                               0D     22
     508      13                                                00010000D     23
     508                       1       1                               0D     24
     126      14                                                00010000D     25
     126       0               5       0                               0D     26
     126      19                                                00010000D     27
     126       0               7       0                               0D     28
     126      26                                                00010000D     29
     126       0               3       0                               0D     30
     126      29                                                00010000D     31
     126       0              10       0                               0D     32
     126      39                                                00010000D     33
     126       0               5       0                               0D     34
     126      44                                                00010000D     35
     126       0               7       0                               0D     36
     126      51                                                00010000D     37
     126       0               2       0                               0D     38
     126      53                                                00010000D     39
     126       0               5       0                               0D     40
     126      58                                                00010000D     41
     126       0               7       0                               0D     42
     128      65                                                00010000D     43
     128       0     -57      14       0                               0D     44
     128      79                                                00010000D     45
     128       0     -57      11       0                               0D     46
     128      90                                                00010000D     47
     128       0     -57       3       0                               0D     48
     128      93                                                00010000D     49
     128       0     -57       3       0                               0D     50
     502      96                                                00010000D     51
     502                       2       1                               0D     52
     504      98                                                00010001D     53
     504                       2       1                               0D     54
     406     100                                                00000000D     55
     406                       1      15                               0D     56
     314     101                                                00000200D     57
     314                       2       0                               0D     58
186,3,1,0,0,1,55;                                                      1P      1
514,4,5,1,7,1,9,1,11,1;                                                3P      2
510,43,1,1,13;                                                         5P      3
510,45,1,1,15;                                                         7P      4
510,47,2,1,17,19;                                                      9P      5
510,49,2,1,21,23;                                                     11P      6
508,5,0,53,1,0,0,0,53,2,0,0,0,53,3,1,0,0,53,4,0,0,0,53,3,0,0;         13P      7
508,6,0,53,5,0,0,0,53,6,0,0,0,53,7,1,0,0,53,8,0,0,0,53,9,0,0,0,       15P      8
53,7,0,0;                                                             15P      9
508,2,0,53,8,1,0,0,53,9,1,0;                                          17P     10
508,1,0,53,4,1,0;                                                     19P     11
508,2,0,53,5,1,0,0,53,6,1,0;                                          21P     12
508,2,0,53,1,1,0,0,53,2,1,0;                                          23P     13
126,4,2,0,0,0,0,0.,0.,0.,1.5707963267949,1.5707963267949,             25P     14
3.14159265358979,3.14159265358979,3.14159265358979,1.,                25P     15
0.707106781186547,1.,0.707106781186548,1.,13.,0.,5.,13.,-13.,5.,      25P     16
-1.15306549681391D-15,-13.,5.,-13.,-13.,5.,-13.,                      25P     17
-1.59204083889156D-15,5.,0.,3.14159265358979,0.,0.,0.;                25P     18
126,4,2,0,0,0,0,3.14159265358979,3.14159265358979,                    27P     19
3.14159265358979,4.71238898038469,4.71238898038469,                   27P     20
6.28318530717959,6.28318530717959,6.28318530717959,1.,                27P     21
0.707106781186548,1.,0.707106781186548,1.,-13.,                       27P     22
-1.59204083889156D-15,5.,-13.,13.,5.,-4.33714717459703D-15,13.,       27P     23
5.,13.,13.,5.,13.,3.18408167778312D-15,5.,3.14159265358979,           27P     24
6.28318530717959,0.,0.,0.;                                            27P     25
126,1,1,0,0,1,0,-0.769230769230769,-0.769230769230769,                29P     26
-0.384615384615385,-0.384615384615385,1.,1.,-13.,0.,5.,-13.,0.,       29P     27
0.,-0.769230769230769,-0.384615384615385,0.,0.,0.;                    29P     28
126,8,2,0,1,0,0,-3.14159265358979,-3.14159265358979,                  31P     29
-3.14159265358979,-1.5707963267949,-1.5707963267949,0.,0.,            31P     30
1.5707963267949,1.5707963267949,3.14159265358979,                     31P     31
3.14159265358979,3.14159265358979,1.,0.707106781186548,1.,            31P     32
0.707106781186547,1.,0.707106781186547,1.,0.707106781186548,1.,       31P     33
-13.,-1.59204083889156D-15,0.,-13.,-13.,0.,                           31P     34
-1.15306549681391D-15,-13.,0.,13.,-13.,0.,13.,0.,0.,13.,13.,0.,       31P     35
-1.15306549681391D-15,13.,0.,-13.,13.,0.,-13.,                        31P     36
1.59204083889156D-15,0.,-3.14159265358979,3.14159265358979,0.,        31P     37
0.,0.;                                                                31P     38
126,4,2,0,0,0,0,0.,0.,0.,1.5707963267949,1.5707963267949,             33P     39
3.14159265358979,3.14159265358979,3.14159265358979,1.,                33P     40
0.707106781186547,1.,0.707106781186548,1.,50.,0.,5.,50.,50.,5.,       33P     41
3.06161699786838D-15,50.,5.,-50.,50.,5.,-50.,                         33P     42
6.12323399573677D-15,5.,0.,3.14159265358979,0.,0.,0.;                 33P     43
126,4,2,0,0,0,0,3.14159265358979,3.14159265358979,                    35P     44
3.14159265358979,4.71238898038469,4.71238898038469,                   35P     45
6.28318530717959,6.28318530717959,6.28318530717959,1.,                35P     46
0.707106781186548,1.,0.707106781186548,1.,-50.,                       35P     47
6.12323399573677D-15,5.,-50.,-50.,5.,-9.18485099360515D-15,-50.,      35P     48
5.,50.,-50.,5.,50.,-1.22464679914735D-14,5.,3.14159265358979,         35P     49
6.28318530717959,0.,0.,0.;                                            35P     50
126,1,1,0,0,1,0,-0.05,-0.05,0.05,0.05,1.,1.,-50.,0.,5.,-50.,0.,       37P     51
0.,-0.05,0.05,0.,0.,0.;                                               37P     52
126,4,2,0,0,0,0,0.,0.,0.,1.5707963267949,1.5707963267949,             39P     53
3.14159265358979,3.14159265358979,3.14159265358979,1.,                39P     54
0.707106781186547,1.,0.707106781186548,1.,50.,0.,0.,50.,-50.,0.,      39P     55
3.06161699786838D-15,-50.,0.,-50.,-50.,0.,-50.,                       39P     56
-6.12323399573677D-15,0.,0.,3.14159265358979,0.,0.,0.;                39P     57
126,4,2,0,0,0,0,3.14159265358979,3.14159265358979,                    41P     58
3.14159265358979,4.71238898038469,4.71238898038469,                   41P     59
6.28318530717959,6.28318530717959,6.28318530717959,1.,                41P     60
0.707106781186548,1.,0.707106781186548,1.,-50.,                       41P     61
-6.12323399573677D-15,0.,-50.,50.,0.,-9.18485099360515D-15,50.,       41P     62
0.,50.,50.,0.,50.,1.22464679914735D-14,0.,3.14159265358979,           41P     63
6.28318530717959,0.,0.,0.;                                            41P     64
128,1,8,1,2,0,1,0,0,1,-0.769230769230769,-0.769230769230769,          43P     65
-0.384615384615385,-0.384615384615385,-3.14159265358979,              43P     66
-3.14159265358979,-3.14159265358979,-1.5707963267949,                 43P     67
-1.5707963267949,0.,0.,1.5707963267949,1.5707963267949,               43P     68
3.14159265358979,3.14159265358979,3.14159265358979,1.,1.,             43P     69
0.707106781186548,0.707106781186548,1.,1.,0.707106781186548,          43P     70
0.707106781186548,1.,1.,0.707106781186548,0.707106781186548,1.,       43P     71
1.,0.707106781186548,0.707106781186548,1.,1.,-13.,0.,5.,-13.,0.,      43P     72
0.,-13.,13.,5.,-13.,13.,0.,-1.94908591625969D-15,13.,5.,              43P     73
-1.94908591625969D-15,13.,0.,13.,13.,5.,13.,13.,0.,13.,0.,5.,         43P     74
13.,0.,0.,13.,-13.,5.,13.,-13.,0.,-1.94908591625969D-15,-13.,5.,      43P     75
-1.94908591625969D-15,-13.,0.,-13.,-13.,5.,-13.,-13.,0.,-13.,0.,      43P     76
5.,-13.,0.,0.,-0.769230769230769,-0.384615384615385,                  43P     77
-3.14159265358979,3.14159265358979;                                   43P     78
128,1,8,1,2,0,1,0,0,1,-0.05,-0.05,0.05,0.05,-3.14159265358979,        45P     79
-3.14159265358979,-3.14159265358979,-1.5707963267949,                 45P     80
-1.5707963267949,0.,0.,1.5707963267949,1.5707963267949,               45P     81
3.14159265358979,3.14159265358979,3.14159265358979,1.,1.,             45P     82
0.707106781186548,0.707106781186548,1.,1.,0.707106781186548,          45P     83
0.707106781186548,1.,1.,0.707106781186548,0.707106781186548,1.,       45P     84
1.,0.707106781186548,0.707106781186548,1.,1.,-50.,0.,5.,-50.,0.,      45P     85
0.,-50.,-50.,5.,-50.,-50.,0.,0.,-50.,5.,0.,-50.,0.,50.,-50.,5.,       45P     86
50.,-50.,0.,50.,0.,5.,50.,0.,0.,50.,50.,5.,50.,50.,0.,0.,50.,5.,      45P     87
0.,50.,0.,-50.,50.,5.,-50.,50.,0.,-50.,0.,5.,-50.,0.,0.,-0.05,        45P     88
0.05,-3.14159265358979,3.14159265358979;                              45P     89
128,1,1,1,1,0,0,1,0,0,-5.001,-5.001,5.001,5.001,-5.001,-5.001,        47P     90
5.001,5.001,1.,1.,1.,1.,50.01,-50.01,0.,-50.01,-50.01,0.,50.01,       47P     91
50.01,0.,-50.01,50.01,0.,-5.001,5.001,-5.001,5.001;                   47P     92
128,1,1,1,1,0,0,1,0,0,-5.001,-5.001,5.001,5.001,-5.001,-5.001,        49P     93
5.001,5.001,1.,1.,1.,1.,-50.01,-50.01,5.,50.01,-50.01,5.,-50.01,      49P     94
50.01,5.,50.01,50.01,5.,-5.001,5.001,-5.001,5.001;                    49P     95
502,7,13.,0.,5.,-13.,0.,5.,-13.,-1.59204083889156D-15,0.,50.,0.,      51P     96
5.,-50.,0.,5.,-50.,0.,0.,50.,0.,0.;                                   51P     97
504,9,25,51,1,51,2,27,51,2,51,1,29,51,2,51,3,31,51,3,51,3,33,51,      53P     98
4,51,5,35,51,5,51,4,37,51,5,51,6,39,51,7,51,6,41,51,6,51,7;           53P     99
406,1,5HBody2;                                                        55P    100
314,62.7450980392157,62.7450980392157,62.7450980392157,13HSteel       57P    101
- Satin;                                                              57P    102
S      1G      3D     58P    102                                        T      1
