                                                                        S      1
,,9HMain Body,9HMain Body,7Hunknown,7Hunknown,32,38,7,99,15,,1.,2,2HMM, G      1
1,0.08,15H20190424.145727,0.01,10000.,14Hcomputerboy586,7Hunknown,11,0, G      2
15H20190417.123440;                                                     G      3
     186       1                                                00000000D      1
     186            -103       1       0                               0D      2
     514       2                                                00010000D      3
     514                       1       1                               0D      4
     510       3                                                00010000D      5
     510            -103       1       1                               0D      6
     510       4                                                00010000D      7
     510            -103       1       1                               0D      8
     510       5                                                00010000D      9
     510            -103       1       1                               0D     10
     510       6                                                00010000D     11
     510            -103       1       1                               0D     12
     510       7                                                00010000D     13
     510            -103       1       1                               0D     14
     510       8                                                00010000D     15
     510            -103       1       1                               0D     16
     510       9                                                00010000D     17
     510            -103       1       1                               0D     18
     508      10                                                00010000D     19
     508                       2       1                               0D     20
     508      12                                                00010000D     21
     508                       2       1                               0D     22
     508      14                                                00010000D     23
     508                       2       1                               0D     24
     508      16                                                00010000D     25
     508                       1       1                               0D     26
     508      17                                                00010000D     27
     508                       1       1                               0D     28
     508      18                                                00010000D     29
     508                       1       1                               0D     30
     508      19                                                00010000D     31
     508                       2       1                               0D     32
     508      21                                                00010000D     33
     508                       1       1                               0D     34
     508      22                                                00010000D     35
     508                       1       1                               0D     36
     508      23                                                00010000D     37
     508                       1       1                               0D     38
     508      24                                                00010000D     39
     508                       1       1                               0D     40
     508      25                                                00010000D     41
     508                       1       1                               0D     42
     126      26                                                00010000D     43
     126       0              26       0                               0D     44
     126      52                                                00010000D     45
     126       0              27       0                               0D     46
     126      79                                                00010000D     47
     126       0               4       0                               0D     48
     126      83                                                00010000D     49
     126       0              35       0                               0D     50
     126     118                                                00010000D     51
     126       0              15       0                               0D     52
     126     133                                                00010000D     53
     126       0              14       0                               0D     54
     126     147                                                00010000D     55
     126       0              37       0                               0D     56
     126     184                                                00010000D     57
     126       0               4       0                               0D     58
     126     188                                                00010000D     59
     126       0              14       0                               0D     60
     126     202                                                00010000D     61
     126       0              37       0                               0D     62
     126     239                                                00010000D     63
     126       0               5       0                               0D     64
     126     244                                                00010000D     65
     126       0               7       0                               0D     66
     126     251                                                00010000D     67
     126       0               3       0                               0D     68
     126     254                                                00010000D     69
     126       0               7       0                               0D     70
     126     261                                                00010000D     71
     126       0               5       0                               0D     72
     126     266                                                00010000D     73
     126       0               5       0                               0D     74
     126     271                                                00010000D     75
     126       0               7       0                               0D     76
     126     278                                                00010000D     77
     126       0               2       0                               0D     78
     126     280                                                00010000D     79
     126       0               5       0                               0D     80
     126     285                                                00010000D     81
     126       0               7       0                               0D     82
     128     292                                                00010000D     83
     128       0    -103      21       0                               0D     84
     128     313                                                00010000D     85
     128       0    -103      25       0                               0D     86
     128     338                                                00010000D     87
     128       0    -103      15       0                               0D     88
     128     353                                                00010000D     89
     128       0    -103       3       0                               0D     90
     128     356                                                00010000D     91
     128       0    -103      11       0                               0D     92
     128     367                                                00010000D     93
     128       0    -103       3       0                               0D     94
     128     370                                                00010000D     95
     128       0    -103       3       0                               0D     96
     502     373                                                00010000D     97
     502                       8       1                               0D     98
     504     381                                                00010001D     99
     504                       5       1                               0D    100
     406     386                                                00000000D    101
     406                       1      15                               0D    102
     314     387                                                00000200D    103
     314                       2       0                               0D    104
186,3,1,0,0,1,101;                                                     1P      1
514,7,5,1,7,1,9,1,11,1,13,1,15,1,17,1;                                 3P      2
510,83,1,1,19;                                                         5P      3
510,85,1,1,21;                                                         7P      4
510,87,3,1,23,25,27;                                                   9P      5
510,89,1,1,29;                                                        11P      6
510,91,3,1,31,33,35;                                                  13P      7
510,93,1,1,37;                                                        15P      8
510,95,2,1,39,41;                                                     17P      9
508,6,0,99,1,0,0,0,99,2,0,0,0,99,3,1,0,0,99,4,0,0,0,99,5,0,0,0,       19P     10
99,3,0,0;                                                             19P     11
508,6,0,99,6,0,0,0,99,7,0,0,0,99,8,1,0,0,99,9,0,0,0,99,10,0,0,0,      21P     12
99,8,0,0;                                                             21P     13
508,6,0,99,11,0,0,0,99,12,0,0,0,99,13,1,0,0,99,14,1,0,0,99,15,1,      23P     14
0,0,99,13,0,0;                                                        23P     15
508,2,0,99,6,1,0,0,99,7,1,0;                                          25P     16
508,2,0,99,4,1,0,0,99,5,1,0;                                          27P     17
508,2,0,99,15,0,0,0,99,14,0,0;                                        29P     18
508,6,0,99,16,0,0,0,99,17,0,0,0,99,18,1,0,0,99,19,0,0,0,99,20,0,      31P     19
0,0,99,18,0,0;                                                        31P     20
508,2,0,99,2,1,0,0,99,1,1,0;                                          33P     21
508,2,0,99,9,1,0,0,99,10,1,0;                                         35P     22
508,2,0,99,19,1,0,0,99,20,1,0;                                        37P     23
508,2,0,99,16,1,0,0,99,17,1,0;                                        39P     24
508,2,0,99,11,1,0,0,99,12,1,0;                                        41P     25
126,17,3,0,0,1,0,0.716168317148695,0.716168317148695,                 43P     26
0.716168317148695,0.716168317148695,0.895210148476224,                43P     27
0.895210148476224,1.07425197980375,1.07425197980375,                  43P     28
1.25329430705057,1.25329430705057,1.43233663429739,                   43P     29
1.43233663429739,1.61137896154421,1.61137896154421,                   43P     30
1.79042128879102,1.79042128879102,1.96946312011855,                   43P     31
1.96946312011855,2.14850495144608,2.14850495144608,                   43P     32
2.14850495144608,2.14850495144608,1.,1.,1.,1.,1.,1.,1.,1.,1.,1.,      43P     33
1.,1.,1.,1.,1.,1.,1.,1.,-5.55111512312578D-16,50.,                    43P     34
28.1110427379608,-0.596806104425099,50.,28.1110427379608,             43P     35
-1.23314747149402,49.9882200173547,27.9916972567476,                  43P     36
-2.40334383269721,49.9456377636523,27.5068300377325,                  43P     37
-2.93722898889109,49.9154402700344,27.1413281703419,                  43P     38
-3.7802865999517,49.8586795422379,26.2982705592813,                   43P     39
-4.14578755754773,49.8284223664244,25.7643859160193,                  43P     40
-4.63065409360187,49.785703499057,24.5941912681242,-4.75,             43P     41
49.7738636233917,23.9578504954502,-4.75,49.7738636233917,             43P     42
22.7642349804714,-4.63065409360187,49.785703499057,                   43P     43
22.1278942077974,-4.14578755754773,49.8284223664244,                  43P     44
20.9576995599023,-3.7802865999517,49.8586795422379,                   43P     45
20.4238149166403,-2.93722898889109,49.9154402700344,                  43P     46
19.5807573055797,-2.40334383269721,49.9456377636523,                  43P     47
19.2152554381892,-1.23314747149402,49.9882200173547,                  43P     48
18.730388219174,-0.596806104425098,50.,18.6110427379608,              43P     49
-4.16333634234434D-16,50.,18.6110427379608,0.716168317148695,         43P     50
2.14850495144608,0.,0.,0.;                                            43P     51
126,18,3,0,0,1,0,2.14850495144608,2.14850495144608,                   45P     52
2.14850495144608,2.14850495144608,2.32754678277361,                   45P     53
2.32754678277361,2.50658861410114,2.50658861410114,                   45P     54
2.68563094134796,2.68563094134796,2.86467326859478,                   45P     55
2.86467326859478,2.86467326859478,3.0437155958416,                    45P     56
3.0437155958416,3.22275792308841,3.22275792308841,                    45P     57
3.40179975441594,3.40179975441594,3.58084158574347,                   45P     58
3.58084158574347,3.58084158574347,3.58084158574347,1.,1.,1.,1.,       45P     59
1.,1.,1.,1.,1.,1.,1.,1.,1.,1.,1.,1.,1.,1.,1.,                         45P     60
-6.93889390390723D-16,50.,18.6110427379608,0.596806104425097,         45P     61
50.,18.6110427379608,1.23314747149402,49.9882200173547,               45P     62
18.730388219174,2.40334383269721,49.9456377636523,                    45P     63
19.2152554381892,2.93722898889109,49.9154402700344,                   45P     64
19.5807573055797,3.7802865999517,49.8586795422379,                    45P     65
20.4238149166403,4.14578755754773,49.8284223664244,                   45P     66
20.9576995599023,4.63065409360187,49.785703499057,                    45P     67
22.1278942077974,4.75,49.7738636233917,22.7642349804714,4.75,         45P     68
49.7738636233917,23.3610427379608,4.75,49.7738636233917,              45P     69
23.9578504954502,4.63065409360187,49.785703499057,                    45P     70
24.5941912681242,4.14578755754773,49.8284223664244,                   45P     71
25.7643859160193,3.7802865999517,49.8586795422379,                    45P     72
26.2982705592813,2.93722898889109,49.9154402700344,                   45P     73
27.1413281703419,2.40334383269721,49.9456377636523,                   45P     74
27.5068300377325,1.23314747149402,49.9882200173547,                   45P     75
27.9916972567476,0.596806104425099,50.,28.1110427379608,              45P     76
-1.38777878078145D-16,50.,28.1110427379608,2.14850495144608,          45P     77
3.58084158574347,0.,0.,0.;                                            45P     78
126,1,1,0,0,1,0,-13.1578947368421,-13.1578947368421,                  47P     79
-12.6315789473684,-12.6315789473684,1.,1.,0.,50.,                     47P     80
18.6110427379608,3.39793209287724D-16,47.5,18.6110427379608,          47P     81
-13.1578947368421,-12.6315789473684,0.,0.,0.;                         47P     82
126,25,3,0,0,1,0,0.,0.,0.,0.,0.179054965464392,                       49P     83
0.179054965464392,0.358109930928783,0.358109930928783,                49P     84
0.537164286933477,0.537164286933477,0.71621864293817,                 49P     85
0.71621864293817,0.895272998942863,0.895272998942863,                 49P     86
1.07432735494756,1.07432735494756,1.25338232041195,                   49P     87
1.25338232041195,1.43243728587634,1.43243728587634,                   49P     88
1.61149225134073,1.61149225134073,1.79054721680512,                   49P     89
1.79054721680512,1.96960157280982,1.96960157280982,                   49P     90
2.14865592881451,2.14865592881451,2.14865592881451,                   49P     91
2.14865592881451,1.,1.,1.,1.,1.,1.,1.,1.,1.,1.,1.,1.,1.,1.,1.,        49P     92
1.,1.,1.,1.,1.,1.,1.,1.,1.,1.,1.,-4.75,47.2619032625644,              49P     93
23.3610427379608,-4.75,47.2619032625644,23.9578926228421,             49P     94
-4.63063767357702,47.2743744287743,24.5942513145924,                  49P     95
-4.14575908931011,47.3193614096013,25.7644342026294,                  49P     96
-3.78026461187831,47.3512213227912,26.2982925473547,                  49P     97
-2.93725124410291,47.4109809559899,27.1413059151301,                  49P     98
-2.40339227034883,47.4427712218175,27.5068015120655,                  49P     99
-1.23320727547199,47.4875987539881,27.9916809320508,                  49P    100
-0.596847853348977,47.5,28.1110427379608,0.596847853348977,47.5,      49P    101
28.1110427379608,1.23320727547199,47.4875987539881,                   49P    102
27.9916809320508,2.40339227034883,47.4427712218175,                   49P    103
27.5068015120655,2.93725124410291,47.4109809559899,                   49P    104
27.1413059151301,3.78026461187831,47.3512213227912,                   49P    105
26.2982925473547,4.14575908931011,47.3193614096013,                   49P    106
25.7644342026294,4.63063767357702,47.2743744287743,                   49P    107
24.5942513145924,4.75,47.2619032625644,23.9578926228421,4.75,         49P    108
47.2619032625644,22.7641928530795,4.63063767357702,                   49P    109
47.2743744287743,22.1278341613292,4.14575908931011,                   49P    110
47.3193614096013,20.9576512732923,3.78026461187831,                   49P    111
47.3512213227912,20.4237929285669,2.93725124410291,                   49P    112
47.4109809559899,19.5807795607915,2.40339227034883,                   49P    113
47.4427712218175,19.2152839638562,1.23320727547199,                   49P    114
47.4875987539881,18.7304045438709,0.596847853348978,47.5,             49P    115
18.6110427379608,4.16333634234434D-16,47.5,18.6110427379608,0.,       49P    116
2.14865592881451,0.,0.,0.;                                            49P    117
126,9,3,0,0,1,0,2.14865592881451,2.14865592881451,                    51P    118
2.14865592881451,2.14865592881451,2.3277102848192,                    51P    119
2.3277102848192,2.50676464082389,2.50676464082389,                    51P    120
2.68581960628829,2.68581960628829,2.86487457175268,                   51P    121
2.86487457175268,2.86487457175268,2.86487457175268,1.,1.,1.,1.,       51P    122
1.,1.,1.,1.,1.,1.,6.93889390390723D-16,47.5,18.6110427379608,         51P    123
-0.596847853348977,47.5,18.6110427379608,-1.23320727547199,           51P    124
47.4875987539881,18.7304045438709,-2.40339227034883,                  51P    125
47.4427712218175,19.2152839638561,-2.93725124410291,                  51P    126
47.4109809559899,19.5807795607915,-3.78026461187831,                  51P    127
47.3512213227912,20.4237929285669,-4.14575908931011,                  51P    128
47.3193614096013,20.9576512732922,-4.63063767357702,                  51P    129
47.2743744287743,22.1278341613292,-4.75,47.2619032625644,             51P    130
22.7641928530795,-4.75,47.2619032625644,23.3610427379608,             51P    131
2.14865592881451,2.86487457175268,0.,0.,0.;                           51P    132
126,9,3,0,0,1,0,0.,0.,0.,0.,0.179054965464392,0.179054965464392,      53P    133
0.358109930928783,0.358109930928783,0.537164286933477,                53P    134
0.537164286933477,0.71621864293817,0.71621864293817,                  53P    135
0.71621864293817,0.71621864293817,1.,1.,1.,1.,1.,1.,1.,1.,1.,1.,      53P    136
-4.75000000000001,-47.2619032625644,23.3610427379608,                 53P    137
-4.75000000000001,-47.2619032625644,22.7641928530795,                 53P    138
-4.63063767357703,-47.2743744287743,22.1278341613292,                 53P    139
-4.14575908931012,-47.3193614096013,20.9576512732922,                 53P    140
-3.78026461187832,-47.3512213227912,20.4237929285669,                 53P    141
-2.93725124410291,-47.4109809559899,19.5807795607915,                 53P    142
-2.40339227034883,-47.4427712218175,19.2152839638561,                 53P    143
-1.23320727547199,-47.4875987539881,18.7304045438709,                 53P    144
-0.596847853348982,-47.5,18.6110427379608,-5.27355936696949D-15,      53P    145
-47.5,18.6110427379608,0.,0.71621864293817,0.,0.,0.;                  53P    146
126,25,3,0,0,1,0,0.71621864293817,0.71621864293817,                   55P    147
0.71621864293817,0.71621864293817,0.895272998942863,                  55P    148
0.895272998942863,1.07432735494756,1.07432735494756,                  55P    149
1.25338232041195,1.25338232041195,1.43243728587634,                   55P    150
1.43243728587634,1.61149225134073,1.61149225134073,                   55P    151
1.79054721680512,1.79054721680512,1.96960157280982,                   55P    152
1.96960157280982,2.14865592881451,2.14865592881451,                   55P    153
2.3277102848192,2.3277102848192,2.5067646408239,2.5067646408239,      55P    154
2.68581960628829,2.68581960628829,2.86487457175268,                   55P    155
2.86487457175268,2.86487457175268,2.86487457175268,1.,1.,1.,1.,       55P    156
1.,1.,1.,1.,1.,1.,1.,1.,1.,1.,1.,1.,1.,1.,1.,1.,1.,1.,1.,1.,1.,       55P    157
1.,-5.55111512312578D-15,-47.5,18.6110427379608,                      55P    158
0.596847853348971,-47.5,18.6110427379608,1.23320727547198,            55P    159
-47.4875987539881,18.7304045438709,2.40339227034882,                  55P    160
-47.4427712218175,19.2152839638561,2.9372512441029,                   55P    161
-47.4109809559899,19.5807795607915,3.78026461187831,                  55P    162
-47.3512213227912,20.4237929285669,4.14575908931011,                  55P    163
-47.3193614096013,20.9576512732923,4.63063767357702,                  55P    164
-47.2743744287743,22.1278341613292,4.74999999999999,                  55P    165
-47.2619032625644,22.7641928530795,4.74999999999999,                  55P    166
-47.2619032625644,23.9578926228421,4.63063767357702,                  55P    167
-47.2743744287743,24.5942513145924,4.14575908931011,                  55P    168
-47.3193614096013,25.7644342026294,3.78026461187831,                  55P    169
-47.3512213227912,26.2982925473547,2.9372512441029,                   55P    170
-47.4109809559899,27.1413059151301,2.40339227034882,                  55P    171
-47.4427712218175,27.5068015120655,1.23320727547198,                  55P    172
-47.4875987539881,27.9916809320508,0.596847853348971,-47.5,           55P    173
28.1110427379608,-0.596847853348983,-47.5,28.1110427379608,           55P    174
-1.23320727547199,-47.4875987539881,27.9916809320508,                 55P    175
-2.40339227034883,-47.4427712218175,27.5068015120655,                 55P    176
-2.93725124410291,-47.4109809559899,27.1413059151301,                 55P    177
-3.78026461187832,-47.3512213227912,26.2982925473547,                 55P    178
-4.14575908931012,-47.3193614096013,25.7644342026294,                 55P    179
-4.63063767357703,-47.2743744287743,24.5942513145924,                 55P    180
-4.75000000000001,-47.2619032625644,23.9578926228421,                 55P    181
-4.75000000000001,-47.2619032625644,23.3610427379608,                 55P    182
0.71621864293817,2.86487457175268,0.,0.,0.;                           55P    183
126,1,1,0,0,1,0,7.36842105263158,7.36842105263158,                    57P    184
7.89473684210526,7.89473684210526,1.,1.,-5.89941201256271D-15,        57P    185
-47.5,18.6110427379608,-6.12323399573677D-15,-50.,                    57P    186
18.6110427379608,7.36842105263158,7.89473684210526,0.,0.,0.;          57P    187
126,9,3,0,0,1,0,0.,0.,0.,0.,0.179042327246818,0.179042327246818,      59P    188
0.358084654493636,0.358084654493636,0.537126485821165,                59P    189
0.537126485821165,0.716168317148695,0.716168317148695,                59P    190
0.716168317148695,0.716168317148695,1.,1.,1.,1.,1.,1.,1.,1.,1.,       59P    191
1.,4.74999999999999,-49.7738636233917,23.3610427379608,               59P    192
4.74999999999999,-49.7738636233917,22.7642349804714,                  59P    193
4.63065409360186,-49.785703499057,22.1278942077974,                   59P    194
4.14578755754772,-49.8284223664244,20.9576995599023,                  59P    195
3.78028659995169,-49.8586795422379,20.4238149166403,                  59P    196
2.93722898889108,-49.9154402700344,19.5807573055797,                  59P    197
2.4033438326972,-49.9456377636523,19.2152554381892,                   59P    198
1.23314747149401,-49.9882200173547,18.730388219174,                   59P    199
0.596806104425092,-50.,18.6110427379608,-6.38378239159465D-15,        59P    200
-50.,18.6110427379608,0.,0.716168317148695,0.,0.,0.;                  59P    201
126,25,3,0,0,1,0,0.716168317148695,0.716168317148695,                 61P    202
0.716168317148695,0.716168317148695,0.895210148476224,                61P    203
0.895210148476224,1.07425197980375,1.07425197980375,                  61P    204
1.25329430705057,1.25329430705057,1.43233663429739,                   61P    205
1.43233663429739,1.61137896154421,1.61137896154421,                   61P    206
1.79042128879102,1.79042128879102,1.96946312011855,                   61P    207
1.96946312011855,2.14850495144608,2.14850495144608,                   61P    208
2.32754678277361,2.32754678277361,2.50658861410114,                   61P    209
2.50658861410114,2.68563094134796,2.68563094134796,                   61P    210
2.86467326859478,2.86467326859478,2.86467326859478,                   61P    211
2.86467326859478,1.,1.,1.,1.,1.,1.,1.,1.,1.,1.,1.,1.,1.,1.,1.,        61P    212
1.,1.,1.,1.,1.,1.,1.,1.,1.,1.,1.,-7.07767178198537D-15,-50.,          61P    213
18.6110427379608,-0.596806104425105,-50.,18.6110427379608,            61P    214
-1.23314747149402,-49.9882200173547,18.730388219174,                  61P    215
-2.40334383269722,-49.9456377636523,19.2152554381892,                 61P    216
-2.9372289888911,-49.9154402700344,19.5807573055797,                  61P    217
-3.7802865999517,-49.8586795422379,20.4238149166403,                  61P    218
-4.14578755754774,-49.8284223664244,20.9576995599023,                 61P    219
-4.63065409360187,-49.785703499057,22.1278942077974,                  61P    220
-4.75000000000001,-49.7738636233917,22.7642349804714,                 61P    221
-4.75000000000001,-49.7738636233917,23.9578504954502,                 61P    222
-4.63065409360187,-49.785703499057,24.5941912681242,                  61P    223
-4.14578755754774,-49.8284223664244,25.7643859160193,                 61P    224
-3.7802865999517,-49.8586795422379,26.2982705592813,                  61P    225
-2.9372289888911,-49.9154402700344,27.1413281703419,                  61P    226
-2.40334383269722,-49.9456377636523,27.5068300377325,                 61P    227
-1.23314747149402,-49.9882200173547,27.9916972567476,                 61P    228
-0.596806104425104,-50.,28.1110427379608,0.596806104425091,-50.,      61P    229
28.1110427379608,1.23314747149401,-49.9882200173547,                  61P    230
27.9916972567476,2.4033438326972,-49.9456377636523,                   61P    231
27.5068300377325,2.93722898889108,-49.9154402700344,                  61P    232
27.1413281703419,3.78028659995169,-49.8586795422379,                  61P    233
26.2982705592813,4.14578755754772,-49.8284223664244,                  61P    234
25.7643859160193,4.63065409360186,-49.785703499057,                   61P    235
24.5941912681242,4.74999999999999,-49.7738636233917,                  61P    236
23.9578504954502,4.74999999999999,-49.7738636233917,                  61P    237
23.3610427379608,0.716168317148695,2.86467326859478,0.,0.,0.;         61P    238
126,4,2,0,0,0,0,0.,0.,0.,1.5707963267949,1.5707963267949,             63P    239
3.14159265358979,3.14159265358979,3.14159265358979,1.,                63P    240
0.707106781186547,1.,0.707106781186547,1.,47.5,0.,50.,47.5,           63P    241
-47.5,50.,9.59450231715276D-16,-47.5,50.,-47.5,-47.5,50.,-47.5,       63P    242
-5.81707229594993D-15,50.,0.,3.14159265358979,0.,0.,0.;               63P    243
126,4,2,0,0,0,0,3.14159265358979,3.14159265358979,                    65P    244
3.14159265358979,4.71238898038469,4.71238898038469,                   65P    245
6.28318530717959,6.28318530717959,6.28318530717959,1.,                65P    246
0.707106781186548,1.,0.707106781186548,1.,-47.5,                      65P    247
-5.81707229594993D-15,50.,-47.5,47.5,50.,-1.06746943601846D-14,       65P    248
47.5,50.,47.5,47.5,50.,47.5,1.16341445918999D-14,50.,                 65P    249
3.14159265358979,6.28318530717959,0.,0.,0.;                           65P    250
126,1,1,0,0,1,0,-0.473684210526316,-0.473684210526316,                67P    251
0.473684210526316,0.473684210526316,1.,1.,-47.5,0.,50.,-47.5,0.,      67P    252
5.,-0.473684210526316,0.473684210526316,0.,0.,0.;                     67P    253
126,4,2,0,0,0,0,3.14159265358979,3.14159265358979,                    69P    254
3.14159265358979,4.71238898038469,4.71238898038469,                   69P    255
6.28318530717959,6.28318530717959,6.28318530717959,1.,                69P    256
0.707106781186548,1.,0.707106781186548,1.,-47.5,                      69P    257
-5.81707229594993D-15,5.,-47.5,47.5,5.,-1.06746943601846D-14,         69P    258
47.5,5.,47.5,47.5,5.,47.5,1.16341445918999D-14,5.,                    69P    259
3.14159265358979,6.28318530717959,0.,0.,0.;                           69P    260
126,4,2,0,0,0,0,0.,0.,0.,1.5707963267949,1.5707963267949,             71P    261
3.14159265358979,3.14159265358979,3.14159265358979,1.,                71P    262
0.707106781186547,1.,0.707106781186547,1.,47.5,0.,5.,47.5,-47.5,      71P    263
5.,9.59450231715276D-16,-47.5,5.,-47.5,-47.5,5.,-47.5,                71P    264
-5.81707229594993D-15,5.,0.,3.14159265358979,0.,0.,0.;                71P    265
126,4,2,0,0,0,0,0.,0.,0.,1.5707963267949,1.5707963267949,             73P    266
3.14159265358979,3.14159265358979,3.14159265358979,1.,                73P    267
0.707106781186547,1.,0.707106781186548,1.,50.,0.,50.,50.,50.,         73P    268
50.,3.06161699786838D-15,50.,50.,-50.,50.,50.,-50.,                   73P    269
6.12323399573677D-15,50.,0.,3.14159265358979,0.,0.,0.;                73P    270
126,4,2,0,0,0,0,3.14159265358979,3.14159265358979,                    75P    271
3.14159265358979,4.71238898038469,4.71238898038469,                   75P    272
6.28318530717959,6.28318530717959,6.28318530717959,1.,                75P    273
0.707106781186548,1.,0.707106781186548,1.,-50.,                       75P    274
6.12323399573677D-15,50.,-50.,-50.,50.,-9.18485099360515D-15,         75P    275
-50.,50.,50.,-50.,50.,50.,-1.22464679914735D-14,50.,                  75P    276
3.14159265358979,6.28318530717959,0.,0.,0.;                           75P    277
126,1,1,0,0,1,0,-0.5,-0.5,0.5,0.5,1.,1.,-50.,0.,50.,-50.,0.,0.,       77P    278
-0.5,0.5,0.,0.,0.;                                                    77P    279
126,4,2,0,0,0,0,0.,0.,0.,1.5707963267949,1.5707963267949,             79P    280
3.14159265358979,3.14159265358979,3.14159265358979,1.,                79P    281
0.707106781186547,1.,0.707106781186548,1.,50.,0.,0.,50.,-50.,0.,      79P    282
3.06161699786838D-15,-50.,0.,-50.,-50.,0.,-50.,                       79P    283
-6.12323399573677D-15,0.,0.,3.14159265358979,0.,0.,0.;                79P    284
126,4,2,0,0,0,0,3.14159265358979,3.14159265358979,                    81P    285
3.14159265358979,4.71238898038469,4.71238898038469,                   81P    286
6.28318530717959,6.28318530717959,6.28318530717959,1.,                81P    287
0.707106781186548,1.,0.707106781186548,1.,-50.,                       81P    288
-6.12323399573677D-15,0.,-50.,50.,0.,-9.18485099360515D-15,50.,       81P    289
0.,50.,50.,0.,50.,1.22464679914735D-14,0.,3.14159265358979,           81P    290
6.28318530717959,0.,0.,0.;                                            81P    291
128,1,8,1,2,0,1,0,0,1,-13.1578947368421,-13.1578947368421,            83P    292
-12.5814533184346,-12.5814533184346,-3.14159265358979,                83P    293
-3.14159265358979,-3.14159265358979,-1.5707963267949,                 83P    294
-1.5707963267949,0.,0.,1.5707963267949,1.5707963267949,               83P    295
3.14159265358979,3.14159265358979,3.14159265358979,1.,1.,             83P    296
0.707106781186548,0.707106781186548,1.,1.,0.707106781186548,          83P    297
0.707106781186548,1.,1.,0.707106781186548,0.707106781186548,1.,       83P    298
1.,0.707106781186548,0.707106781186548,1.,1.,0.,50.,                  83P    299
18.6110427379608,-1.67660070262813D-16,47.2619032625644,              83P    300
18.6110427379608,4.75,50.,18.6110427379608,4.75,                      83P    301
47.2619032625644,18.6110427379608,4.75,50.,23.3610427379608,          83P    302
4.75,47.2619032625644,23.3610427379608,4.75,50.,                      83P    303
28.1110427379608,4.75,47.2619032625644,28.1110427379608,0.,50.,       83P    304
28.1110427379608,-1.67660070262813D-16,47.2619032625644,              83P    305
28.1110427379608,-4.75,50.,28.1110427379608,-4.75,                    83P    306
47.2619032625644,28.1110427379608,-4.75,50.,23.3610427379608,         83P    307
-4.75,47.2619032625644,23.3610427379608,-4.75,50.,                    83P    308
18.6110427379608,-4.75,47.2619032625644,18.6110427379608,0.,50.,      83P    309
18.6110427379608,-1.67660070262813D-16,47.2619032625644,              83P    310
18.6110427379608,-13.1578947368421,-12.5814533184346,                 83P    311
-3.14159265358979,3.14159265358979;                                   83P    312
128,1,8,1,2,0,1,0,0,1,7.31829542369778,7.31829542369778,              85P    313
7.89473684210526,7.89473684210526,-3.14159265358979,                  85P    314
-3.14159265358979,-3.14159265358979,-1.5707963267949,                 85P    315
-1.5707963267949,0.,0.,1.5707963267949,1.5707963267949,               85P    316
3.14159265358979,3.14159265358979,3.14159265358979,1.,1.,             85P    317
0.707106781186548,0.707106781186548,1.,1.,0.707106781186548,          85P    318
0.707106781186548,1.,1.,0.707106781186548,0.707106781186548,1.,       85P    319
1.,0.707106781186548,0.707106781186548,1.,1.,                         85P    320
-5.95557392547395D-15,-47.2619032625644,18.6110427379608,             85P    321
-6.12323399573677D-15,-50.,18.6110427379608,4.74999999999999,         85P    322
-47.2619032625644,18.6110427379608,4.74999999999999,-50.,             85P    323
18.6110427379608,4.74999999999999,-47.2619032625644,                  85P    324
23.3610427379608,4.74999999999999,-50.,23.3610427379608,              85P    325
4.74999999999999,-47.2619032625644,28.1110427379608,                  85P    326
4.74999999999999,-50.,28.1110427379608,-5.95557392547395D-15,         85P    327
-47.2619032625644,28.1110427379608,-6.12323399573677D-15,-50.,        85P    328
28.1110427379608,-4.75000000000001,-47.2619032625644,                 85P    329
28.1110427379608,-4.75000000000001,-50.,28.1110427379608,             85P    330
-4.75000000000001,-47.2619032625644,23.3610427379608,                 85P    331
-4.75000000000001,-50.,23.3610427379608,-4.75000000000001,            85P    332
-47.2619032625644,18.6110427379608,-4.75000000000001,-50.,            85P    333
18.6110427379608,-5.95557392547395D-15,-47.2619032625644,             85P    334
18.6110427379608,-6.12323399573677D-15,-50.,18.6110427379608,         85P    335
7.31829542369778,7.89473684210526,-3.14159265358979,                  85P    336
3.14159265358979;                                                     85P    337
128,1,8,1,2,0,1,0,0,1,-0.473684210526316,-0.473684210526316,          87P    338
0.473684210526316,0.473684210526316,-3.14159265358979,                87P    339
-3.14159265358979,-3.14159265358979,-1.5707963267949,                 87P    340
-1.5707963267949,0.,0.,1.5707963267949,1.5707963267949,               87P    341
3.14159265358979,3.14159265358979,3.14159265358979,1.,1.,             87P    342
0.707106781186548,0.707106781186548,1.,1.,0.707106781186548,          87P    343
0.707106781186548,1.,1.,0.707106781186548,0.707106781186548,1.,       87P    344
1.,0.707106781186548,0.707106781186548,1.,1.,-47.5,0.,50.,-47.5,      87P    345
0.,5.,-47.5,47.5,50.,-47.5,47.5,5.,-1.94908591625969D-15,47.5,        87P    346
50.,-1.94908591625969D-15,47.5,5.,47.5,47.5,50.,47.5,47.5,5.,         87P    347
47.5,0.,50.,47.5,0.,5.,47.5,-47.5,50.,47.5,-47.5,5.,                  87P    348
-1.94908591625969D-15,-47.5,50.,-1.94908591625969D-15,-47.5,5.,       87P    349
-47.5,-47.5,50.,-47.5,-47.5,5.,-47.5,0.,50.,-47.5,0.,5.,              87P    350
-0.473684210526316,0.473684210526316,-3.14159265358979,               87P    351
3.14159265358979;                                                     87P    352
128,1,1,1,1,0,0,1,0,0,-4.751,-4.751,4.751,4.751,-4.751,-4.751,        89P    353
4.751,4.751,1.,1.,1.,1.,47.51,47.51,5.,-47.51,47.51,5.,47.51,         89P    354
-47.51,5.,-47.51,-47.51,5.,-4.751,4.751,-4.751,4.751;                 89P    355
128,1,8,1,2,0,1,0,0,1,-0.5,-0.5,0.5,0.5,-3.14159265358979,            91P    356
-3.14159265358979,-3.14159265358979,-1.5707963267949,                 91P    357
-1.5707963267949,0.,0.,1.5707963267949,1.5707963267949,               91P    358
3.14159265358979,3.14159265358979,3.14159265358979,1.,1.,             91P    359
0.707106781186548,0.707106781186548,1.,1.,0.707106781186548,          91P    360
0.707106781186548,1.,1.,0.707106781186548,0.707106781186548,1.,       91P    361
1.,0.707106781186548,0.707106781186548,1.,1.,-50.,0.,50.,-50.,        91P    362
0.,0.,-50.,-50.,50.,-50.,-50.,0.,0.,-50.,50.,0.,-50.,0.,50.,          91P    363
-50.,50.,50.,-50.,0.,50.,0.,50.,50.,0.,0.,50.,50.,50.,50.,50.,        91P    364
0.,0.,50.,50.,0.,50.,0.,-50.,50.,50.,-50.,50.,0.,-50.,0.,50.,         91P    365
-50.,0.,0.,-0.5,0.5,-3.14159265358979,3.14159265358979;               91P    366
128,1,1,1,1,0,0,1,0,0,-5.001,-5.001,5.001,5.001,-5.001,-5.001,        93P    367
5.001,5.001,1.,1.,1.,1.,50.01,-50.01,0.,-50.01,-50.01,0.,50.01,       93P    368
50.01,0.,-50.01,50.01,0.,-5.001,5.001,-5.001,5.001;                   93P    369
128,1,1,1,1,0,0,1,0,0,-5.001,-5.001,5.001,5.001,-5.001,-5.001,        95P    370
5.001,5.001,1.,1.,1.,1.,-50.01,-50.01,50.,50.01,-50.01,50.,           95P    371
-50.01,50.01,50.,50.01,50.01,50.,-5.001,5.001,-5.001,5.001;           95P    372
502,16,0.,50.,28.1110427379608,3.0616169978684D-15,50.,               97P    373
18.6110427379608,3.39793209287724D-16,47.5,18.6110427379608,          97P    374
-4.75,47.2619032625644,23.3610427379608,-4.75000000000001,            97P    375
-47.2619032625644,23.3610427379608,-5.89941201256271D-15,-47.5,       97P    376
18.6110427379608,-6.12323399573677D-15,-50.,18.6110427379608,         97P    377
4.74999999999999,-49.7738636233917,23.3610427379608,47.5,0.,50.,      97P    378
-47.5,0.,50.,-47.5,0.,5.,47.5,0.,5.,50.,0.,50.,-50.,0.,50.,-50.,      97P    379
0.,0.,50.,0.,0.;                                                      97P    380
504,20,43,97,1,97,2,45,97,2,97,1,47,97,2,97,3,49,97,4,97,3,51,        99P    381
97,3,97,4,53,97,5,97,6,55,97,6,97,5,57,97,6,97,7,59,97,8,97,7,        99P    382
61,97,7,97,8,63,97,9,97,10,65,97,10,97,9,67,97,10,97,11,69,97,        99P    383
11,97,12,71,97,12,97,11,73,97,13,97,14,75,97,14,97,13,77,97,14,       99P    384
97,15,79,97,16,97,15,81,97,15,97,16;                                  99P    385
406,1,5HBody5;                                                       101P    386
314,62.7450980392157,62.7450980392157,62.7450980392157,13HSteel      103P    387
- Satin;                                                             103P    388
S      1G      3D    104P    388                                        T      1
