                                                                        S      1
,,12HStar LED Top,12HStar LED Top,7Hunknown,7Hunknown,32,38,7,99,15,,1.,G      1
2,2HMM,1,0.08,15H20190424.150205,0.01,10000.,14Hcomputerboy586,7HunknownG      2
,11,0,15H20190419.125054;                                               G      3
     186       1                                                00000000D      1
     186            -129       1       0                               0D      2
     514       2                                                00010000D      3
     514                       1       1                               0D      4
     510       3                                                00010000D      5
     510            -129       1       1                               0D      6
     510       4                                                00010000D      7
     510            -129       1       1                               0D      8
     510       5                                                00010000D      9
     510            -129       1       1                               0D     10
     510       6                                                00010000D     11
     510            -129       1       1                               0D     12
     510       7                                                00010000D     13
     510            -129       1       1                               0D     14
     510       8                                                00010000D     15
     510            -129       1       1                               0D     16
     510       9                                                00010000D     17
     510            -129       1       1                               0D     18
     510      10                                                00010000D     19
     510            -129       1       1                               0D     20
     508      11                                                00010000D     21
     508                       2       1                               0D     22
     508      13                                                00010000D     23
     508                       2       1                               0D     24
     508      15                                                00010000D     25
     508                       1       1                               0D     26
     508      16                                                00010000D     27
     508                       1       1                               0D     28
     508      17                                                00010000D     29
     508                       1       1                               0D     30
     508      18                                                00010000D     31
     508                       1       1                               0D     32
     508      19                                                00010000D     33
     508                       1       1                               0D     34
     508      20                                                00010000D     35
     508                       1       1                               0D     36
     508      21                                                00010000D     37
     508                       1       1                               0D     38
     508      22                                                00010000D     39
     508                       1       1                               0D     40
     508      23                                                00010000D     41
     508                       1       1                               0D     42
     508      24                                                00010000D     43
     508                       1       1                               0D     44
     508      25                                                00010000D     45
     508                       1       1                               0D     46
     508      26                                                00010000D     47
     508                       1       1                               0D     48
     508      27                                                00010000D     49
     508                       2       1                               0D     50
     508      29                                                00010000D     51
     508                       2       1                               0D     52
     508      31                                                00010000D     53
     508                       2       1                               0D     54
     508      33                                                00010000D     55
     508                       2       1                               0D     56
     126      35                                                00010000D     57
     126       0               7       0                               0D     58
     126      42                                                00010000D     59
     126       0               8       0                               0D     60
     126      50                                                00010000D     61
     126       0               4       0                               0D     62
     126      54                                                00010000D     63
     126       0              12       0                               0D     64
     126      66                                                00010000D     65
     126       0               5       0                               0D     66
     126      71                                                00010000D     67
     126       0               7       0                               0D     68
     126      78                                                00010000D     69
     126       0               2       0                               0D     70
     126      80                                                00010000D     71
     126       0               5       0                               0D     72
     126      85                                                00010000D     73
     126       0               7       0                               0D     74
     126      92                                                00010000D     75
     126       0              12       0                               0D     76
     126     104                                                00010000D     77
     126       0              12       0                               0D     78
     126     116                                                00010000D     79
     126       0              12       0                               0D     80
     126     128                                                00010000D     81
     126       0              12       0                               0D     82
     126     140                                                00010000D     83
     126       0               7       0                               0D     84
     126     147                                                00010000D     85
     126       0               8       0                               0D     86
     126     155                                                00010000D     87
     126       0               7       0                               0D     88
     126     162                                                00010000D     89
     126       0               8       0                               0D     90
     126     170                                                00010000D     91
     126       0               7       0                               0D     92
     126     177                                                00010000D     93
     126       0               8       0                               0D     94
     126     185                                                00010000D     95
     126       0               7       0                               0D     96
     126     192                                                00010000D     97
     126       0               8       0                               0D     98
     126     200                                                00010000D     99
     126       0               4       0                               0D    100
     126     204                                                00010000D    101
     126       0               4       0                               0D    102
     126     208                                                00010000D    103
     126       0               4       0                               0D    104
     126     212                                                00010000D    105
     126       0               4       0                               0D    106
     128     216                                                00010000D    107
     128       0    -129      21       0                               0D    108
     128     237                                                00010000D    109
     128       0    -129      11       0                               0D    110
     128     248                                                00010000D    111
     128       0    -129       3       0                               0D    112
     128     251                                                00010000D    113
     128       0    -129       3       0                               0D    114
     128     254                                                00010000D    115
     128       0    -129      21       0                               0D    116
     128     275                                                00010000D    117
     128       0    -129      21       0                               0D    118
     128     296                                                00010000D    119
     128       0    -129      21       0                               0D    120
     128     317                                                00010000D    121
     128       0    -129      21       0                               0D    122
     502     338                                                00010000D    123
     502                      11       1                               0D    124
     504     349                                                00010001D    125
     504                       7       1                               0D    126
     406     356                                                00000000D    127
     406                       1      15                               0D    128
     314     357                                                00000200D    129
     314                       2       0                               0D    130
186,3,1,0,0,1,127;                                                     1P      1
514,8,5,1,7,1,9,1,11,1,13,1,15,1,17,1,19,1;                            3P      2
510,107,1,1,21;                                                        5P      3
510,109,1,1,23;                                                        7P      4
510,111,6,1,25,27,29,31,33,35;                                         9P      5
510,113,6,1,37,39,41,43,45,47;                                        11P      6
510,115,1,1,49;                                                       13P      7
510,117,1,1,51;                                                       15P      8
510,119,1,1,53;                                                       17P      9
510,121,1,1,55;                                                       19P     10
508,5,0,125,1,0,0,0,125,2,0,0,0,125,3,1,0,0,125,4,0,0,0,125,3,0,      21P     11
0;                                                                    21P     12
508,6,0,125,5,0,0,0,125,6,0,0,0,125,7,1,0,0,125,8,0,0,0,125,9,0,      23P     13
0,0,125,7,0,0;                                                        23P     14
508,2,0,125,8,1,0,0,125,9,1,0;                                        25P     15
508,1,0,125,10,1,0;                                                   27P     16
508,1,0,125,11,1,0;                                                   29P     17
508,1,0,125,12,1,0;                                                   31P     18
508,1,0,125,13,1,0;                                                   33P     19
508,1,0,125,4,1,0;                                                    35P     20
508,2,0,125,5,1,0,0,125,6,1,0;                                        37P     21
508,2,0,125,14,1,0,0,125,15,1,0;                                      39P     22
508,2,0,125,16,1,0,0,125,17,1,0;                                      41P     23
508,2,0,125,18,1,0,0,125,19,1,0;                                      43P     24
508,2,0,125,20,1,0,0,125,21,1,0;                                      45P     25
508,2,0,125,1,1,0,0,125,2,1,0;                                        47P     26
508,5,0,125,20,0,0,0,125,21,0,0,0,125,22,1,0,0,125,13,0,0,0,125,      49P     27
22,0,0;                                                               49P     28
508,5,0,125,18,0,0,0,125,19,0,0,0,125,23,1,0,0,125,12,0,0,0,125,      51P     29
23,0,0;                                                               51P     30
508,5,0,125,16,0,0,0,125,17,0,0,0,125,24,1,0,0,125,11,0,0,0,125,      53P     31
24,0,0;                                                               53P     32
508,5,0,125,14,0,0,0,125,15,0,0,0,125,25,1,0,0,125,10,0,0,0,125,      55P     33
25,0,0;                                                               55P     34
126,4,2,0,0,0,0,0.,0.,0.,1.5707963267949,1.5707963267949,             57P     35
3.14159265358979,3.14159265358979,3.14159265358979,1.,                57P     36
0.70710678118655,1.,0.70710678118655,1.,-27.1257881416947,            57P     37
-17.2991462923653,5.,-27.1257881416947,-20.2991462923653,5.,          57P     38
-30.1257881416947,-20.2991462923653,5.,-33.1257881416947,             57P     39
-20.2991462923653,5.,-33.1257881416947,-17.2991462923653,5.,0.,       57P     40
3.14159265358979,0.,0.,0.;                                            57P     41
126,4,2,0,0,0,0,3.14159265358979,3.14159265358979,                    59P     42
3.14159265358979,4.71238898038469,4.71238898038469,                   59P     43
6.28318530717959,6.28318530717959,6.28318530717959,1.,                59P     44
0.707106781186549,1.,0.707106781186549,1.,-33.1257881416947,          59P     45
-17.2991462923653,5.,-33.1257881416947,-14.2991462923653,5.,          59P     46
-30.1257881416947,-14.2991462923653,5.,-27.1257881416947,             59P     47
-14.2991462923653,5.,-27.1257881416947,-17.2991462923653,5.,          59P     48
3.14159265358979,6.28318530717959,0.,0.,0.;                           59P     49
126,1,1,0,0,1,0,-3.33333333333333,-3.33333333333333,                  61P     50
-1.66666666666667,-1.66666666666667,1.,1.,-33.1257881416947,          61P     51
-17.2991462923653,5.,-33.1257881416947,-17.2991462923653,0.,          61P     52
-3.33333333333333,-1.66666666666667,0.,0.,0.;                         61P     53
126,8,2,0,1,0,0,-3.14159265358979,-3.14159265358979,                  63P     54
-3.14159265358979,-1.5707963267949,-1.5707963267949,0.,0.,            63P     55
1.5707963267949,1.5707963267949,3.14159265358979,                     63P     56
3.14159265358979,3.14159265358979,1.,0.70710678118655,1.,             63P     57
0.70710678118655,1.,0.707106781186549,1.,0.707106781186549,1.,        63P     58
-33.1257881416947,-17.2991462923653,0.,-33.1257881416947,             63P     59
-20.2991462923653,0.,-30.1257881416947,-20.2991462923653,0.,          63P     60
-27.1257881416947,-20.2991462923653,0.,-27.1257881416947,             63P     61
-17.2991462923653,0.,-27.1257881416947,-14.2991462923653,0.,          63P     62
-30.1257881416947,-14.2991462923653,0.,-33.1257881416947,             63P     63
-14.2991462923653,0.,-33.1257881416947,-17.2991462923653,0.,          63P     64
-3.14159265358979,3.14159265358979,0.,0.,0.;                          63P     65
126,4,2,0,0,0,0,0.,0.,0.,1.5707963267949,1.5707963267949,             65P     66
3.14159265358979,3.14159265358979,3.14159265358979,1.,                65P     67
0.707106781186547,1.,0.707106781186548,1.,50.,0.,5.,50.,50.,5.,       65P     68
3.06161699786838D-15,50.,5.,-50.,50.,5.,-50.,                         65P     69
6.12323399573677D-15,5.,0.,3.14159265358979,0.,0.,0.;                 65P     70
126,4,2,0,0,0,0,3.14159265358979,3.14159265358979,                    67P     71
3.14159265358979,4.71238898038469,4.71238898038469,                   67P     72
6.28318530717959,6.28318530717959,6.28318530717959,1.,                67P     73
0.707106781186548,1.,0.707106781186548,1.,-50.,                       67P     74
6.12323399573677D-15,5.,-50.,-50.,5.,-9.18485099360515D-15,-50.,      67P     75
5.,50.,-50.,5.,50.,-1.22464679914735D-14,5.,3.14159265358979,         67P     76
6.28318530717959,0.,0.,0.;                                            67P     77
126,1,1,0,0,1,0,-0.05,-0.05,0.05,0.05,1.,1.,-50.,0.,5.,-50.,0.,       69P     78
0.,-0.05,0.05,0.,0.,0.;                                               69P     79
126,4,2,0,0,0,0,0.,0.,0.,1.5707963267949,1.5707963267949,             71P     80
3.14159265358979,3.14159265358979,3.14159265358979,1.,                71P     81
0.707106781186547,1.,0.707106781186548,1.,50.,0.,0.,50.,-50.,0.,      71P     82
3.06161699786838D-15,-50.,0.,-50.,-50.,0.,-50.,                       71P     83
-6.12323399573677D-15,0.,0.,3.14159265358979,0.,0.,0.;                71P     84
126,4,2,0,0,0,0,3.14159265358979,3.14159265358979,                    73P     85
3.14159265358979,4.71238898038469,4.71238898038469,                   73P     86
6.28318530717959,6.28318530717959,6.28318530717959,1.,                73P     87
0.707106781186548,1.,0.707106781186548,1.,-50.,                       73P     88
-6.12323399573677D-15,0.,-50.,50.,0.,-9.18485099360515D-15,50.,       73P     89
0.,50.,50.,0.,50.,1.22464679914735D-14,0.,3.14159265358979,           73P     90
6.28318530717959,0.,0.,0.;                                            73P     91
126,8,2,0,1,0,0,-3.14159265358979,-3.14159265358979,                  75P     92
-3.14159265358979,-1.5707963267949,-1.5707963267949,0.,0.,            75P     93
1.5707963267949,1.5707963267949,3.14159265358979,                     75P     94
3.14159265358979,3.14159265358979,1.,0.70710678118654,1.,             75P     95
0.707106781186541,1.,0.707106781186544,1.,0.707106781186544,1.,       75P     96
-26.688897295545,26.1587664770523,0.,-29.5420668444304,               75P     97
25.2317154939274,0.,-28.6150158613056,22.3785459450419,0.,            75P     98
-27.6879648781807,19.5253763961565,0.,-24.8347953292953,              75P     99
20.4524273792813,0.,-21.9816257804098,21.3794783624062,0.,            75P    100
-22.9086767635347,24.2326479112916,0.,-23.8357277466595,              75P    101
27.0858174601771,0.,-26.688897295545,26.1587664770523,0.,             75P    102
-3.14159265358979,3.14159265358979,0.,0.,0.;                          75P    103
126,8,2,0,1,0,0,-3.14159265358979,-3.14159265358979,                  77P    104
-3.14159265358979,-1.5707963267949,-1.5707963267949,0.,0.,            77P    105
1.5707963267949,1.5707963267949,3.14159265358979,                     77P    106
3.14159265358979,3.14159265358979,1.,0.707106781186549,1.,            77P    107
0.707106781186547,1.,0.707106781186548,1.,0.707106781186548,1.,       77P    108
16.6311424907928,33.466153078955,0.,14.8677867339154,                 77P    109
35.8932040620798,0.,12.4407357507905,34.1298483052024,0.,             77P    110
10.0136847676657,32.366492548325,0.,11.7770405245431,                 77P    111
29.9394415652001,0.,13.5403962814205,27.5123905820753,0.,             77P    112
15.9674472645454,29.2757463389527,0.,18.3944982476702,                77P    113
31.0391020958301,0.,16.6311424907928,33.466153078955,0.,              77P    114
-3.14159265358979,3.14159265358979,0.,0.,0.;                          77P    115
126,8,2,0,1,0,0,-3.14159265358979,-3.14159265358979,                  79P    116
-3.14159265358979,-1.5707963267949,-1.5707963267949,0.,0.,            79P    117
1.5707963267949,1.5707963267949,3.14159265358979,                     79P    118
3.14159265358979,3.14159265358979,1.,0.707106781186548,1.,            79P    119
0.707106781186548,1.,0.707106781186548,1.,0.707106781186547,1.,       79P    120
36.9675086265975,-5.47554640155115,0.,38.7308643834749,               79P    121
-3.04849541842631,0.,36.3038134003501,-1.28513966154889,0.,           79P    122
33.8767624172252,0.478216095328532,0.,32.1134066603478,               79P    123
-1.94883488779631,0.,30.3500509034704,-4.37588587092115,0.,           79P    124
32.7771018865952,-6.13924162779857,0.,35.2041528697201,               79P    125
-7.90259738467599,0.,36.9675086265975,-5.47554640155115,0.,           79P    126
-3.14159265358979,3.14159265358979,0.,0.,0.;                          79P    127
126,8,2,0,1,0,0,-3.14159265358979,-3.14159265358979,                  81P    128
-3.14159265358979,-1.5707963267949,-1.5707963267949,0.,0.,            81P    129
1.5707963267949,1.5707963267949,3.14159265358979,                     81P    130
3.14159265358979,3.14159265358979,1.,0.707106781186546,1.,            81P    131
0.707106781186547,1.,0.707106781186546,1.,0.707106781186547,1.,       81P    132
6.2160343198494,-36.8502268620907,0.,9.06920386873487,                81P    133
-37.7772778452156,0.,9.99625485185971,-34.9241082963301,0.,           81P    134
10.9233058349845,-32.0709387474447,0.,8.07013628609909,               81P    135
-31.1438877643198,0.,5.21696673721363,-30.216836781195,0.,            81P    136
4.28991575408878,-33.0700063300804,0.,3.36286477096394,               81P    137
-35.9231758789659,0.,6.2160343198494,-36.8502268620907,0.,            81P    138
-3.14159265358979,3.14159265358979,0.,0.,0.;                          81P    139
126,4,2,0,0,0,0,0.,0.,0.,1.5707963267949,1.5707963267949,             83P    140
3.14159265358979,3.14159265358979,3.14159265358979,1.,                83P    141
0.707106781186542,1.,0.707106781186546,1.,-24.8347953292953,          83P    142
20.4524273792813,5.,-27.6879648781807,19.5253763961565,5.,            83P    143
-28.6150158613056,22.378545945042,5.,-29.5420668444304,               83P    144
25.2317154939274,5.,-26.688897295545,26.1587664770523,5.,0.,          83P    145
3.14159265358979,0.,0.,0.;                                            83P    146
126,4,2,0,0,0,0,3.14159265358979,3.14159265358979,                    85P    147
3.14159265358979,4.71238898038469,4.71238898038469,                   85P    148
6.28318530717959,6.28318530717959,6.28318530717959,1.,                85P    149
0.707106781186542,1.,0.70710678118654,1.,-26.688897295545,            85P    150
26.1587664770523,5.,-23.8357277466595,27.0858174601771,5.,            85P    151
-22.9086767635347,24.2326479112916,5.,-21.9816257804098,              85P    152
21.3794783624062,5.,-24.8347953292953,20.4524273792813,5.,            85P    153
3.14159265358979,6.28318530717959,0.,0.,0.;                           85P    154
126,4,2,0,0,0,0,0.,0.,0.,1.5707963267949,1.5707963267949,             87P    155
3.14159265358979,3.14159265358979,3.14159265358979,1.,                87P    156
0.707106781186548,1.,0.707106781186549,1.,11.7770405245431,           87P    157
29.9394415652001,5.,10.0136847676657,32.366492548325,5.,              87P    158
12.4407357507905,34.1298483052024,5.,14.8677867339154,                87P    159
35.8932040620798,5.,16.6311424907928,33.466153078955,5.,0.,           87P    160
3.14159265358979,0.,0.,0.;                                            87P    161
126,4,2,0,0,0,0,3.14159265358979,3.14159265358979,                    89P    162
3.14159265358979,4.71238898038469,4.71238898038469,                   89P    163
6.28318530717959,6.28318530717959,6.28318530717959,1.,                89P    164
0.707106781186547,1.,0.707106781186549,1.,16.6311424907928,           89P    165
33.466153078955,5.,18.3944982476702,31.0391020958301,5.,              89P    166
15.9674472645454,29.2757463389527,5.,13.5403962814205,                89P    167
27.5123905820753,5.,11.7770405245431,29.9394415652001,5.,             89P    168
3.14159265358979,6.28318530717959,0.,0.,0.;                           89P    169
126,4,2,0,0,0,0,0.,0.,0.,1.5707963267949,1.5707963267949,             91P    170
3.14159265358979,3.14159265358979,3.14159265358979,1.,                91P    171
0.707106781186548,1.,0.707106781186548,1.,32.1134066603478,           91P    172
-1.94883488779631,5.,33.8767624172252,0.478216095328532,5.,           91P    173
36.3038134003501,-1.28513966154889,5.,38.7308643834749,               91P    174
-3.04849541842631,5.,36.9675086265975,-5.47554640155115,5.,0.,        91P    175
3.14159265358979,0.,0.,0.;                                            91P    176
126,4,2,0,0,0,0,3.14159265358979,3.14159265358979,                    93P    177
3.14159265358979,4.71238898038469,4.71238898038469,                   93P    178
6.28318530717959,6.28318530717959,6.28318530717959,1.,                93P    179
0.707106781186548,1.,0.707106781186548,1.,36.9675086265975,           93P    180
-5.47554640155115,5.,35.2041528697201,-7.90259738467599,5.,           93P    181
32.7771018865952,-6.13924162779857,5.,30.3500509034704,               93P    182
-4.37588587092115,5.,32.1134066603478,-1.94883488779631,5.,           93P    183
3.14159265358979,6.28318530717959,0.,0.,0.;                           93P    184
126,4,2,0,0,0,0,0.,0.,0.,1.5707963267949,1.5707963267949,             95P    185
3.14159265358979,3.14159265358979,3.14159265358979,1.,                95P    186
0.707106781186548,1.,0.707106781186546,1.,8.07013628609909,           95P    187
-31.1438877643198,5.,10.9233058349845,-32.0709387474447,5.,           95P    188
9.99625485185971,-34.9241082963301,5.,9.06920386873487,               95P    189
-37.7772778452156,5.,6.2160343198494,-36.8502268620907,5.,0.,         95P    190
3.14159265358979,0.,0.,0.;                                            95P    191
126,4,2,0,0,0,0,3.14159265358979,3.14159265358979,                    97P    192
3.14159265358979,4.71238898038469,4.71238898038469,                   97P    193
6.28318530717959,6.28318530717959,6.28318530717959,1.,                97P    194
0.707106781186548,1.,0.707106781186546,1.,6.2160343198494,            97P    195
-36.8502268620907,5.,3.36286477096394,-35.9231758789659,5.,           97P    196
4.28991575408878,-33.0700063300804,5.,5.21696673721362,               97P    197
-30.216836781195,5.,8.07013628609909,-31.1438877643198,5.,            97P    198
3.14159265358979,6.28318530717959,0.,0.,0.;                           97P    199
126,1,1,0,0,1,0,-3.33333333333333,-3.33333333333333,                  99P    200
-1.66666666666667,-1.66666666666667,1.,1.,6.2160343198494,            99P    201
-36.8502268620907,5.,6.2160343198494,-36.8502268620907,0.,            99P    202
-3.33333333333333,-1.66666666666667,0.,0.,0.;                         99P    203
126,1,1,0,0,1,0,-3.33333333333333,-3.33333333333333,                 101P    204
-1.66666666666667,-1.66666666666667,1.,1.,36.9675086265975,          101P    205
-5.47554640155115,5.,36.9675086265975,-5.47554640155115,0.,          101P    206
-3.33333333333333,-1.66666666666667,0.,0.,0.;                        101P    207
126,1,1,0,0,1,0,-3.33333333333333,-3.33333333333333,                 103P    208
-1.66666666666667,-1.66666666666667,1.,1.,16.6311424907928,          103P    209
33.466153078955,5.,16.6311424907928,33.466153078955,0.,              103P    210
-3.33333333333333,-1.66666666666667,0.,0.,0.;                        103P    211
126,1,1,0,0,1,0,-3.33333333333333,-3.33333333333333,                 105P    212
-1.66666666666667,-1.66666666666667,1.,1.,-26.688897295545,          105P    213
26.1587664770523,5.,-26.688897295545,26.1587664770523,0.,            105P    214
-3.33333333333333,-1.66666666666667,0.,0.,0.;                        105P    215
128,1,8,1,2,0,1,0,0,1,-3.33333333333333,-3.33333333333333,           107P    216
-1.66666666666667,-1.66666666666667,-3.14159265358979,               107P    217
-3.14159265358979,-3.14159265358979,-1.5707963267949,                107P    218
-1.5707963267949,0.,0.,1.5707963267949,1.5707963267949,              107P    219
3.14159265358979,3.14159265358979,3.14159265358979,1.,1.,            107P    220
0.707106781186548,0.707106781186548,1.,1.,0.707106781186548,         107P    221
0.707106781186548,1.,1.,0.707106781186548,0.707106781186548,1.,      107P    222
1.,0.707106781186548,0.707106781186548,1.,1.,-33.1257881416947,      107P    223
-17.2991462923653,5.,-33.1257881416947,-17.2991462923653,0.,         107P    224
-33.1257881416947,-14.2991462923653,5.,-33.1257881416947,            107P    225
-14.2991462923653,0.,-30.1257881416947,-14.2991462923653,5.,         107P    226
-30.1257881416947,-14.2991462923653,0.,-27.1257881416947,            107P    227
-14.2991462923653,5.,-27.1257881416947,-14.2991462923653,0.,         107P    228
-27.1257881416947,-17.2991462923653,5.,-27.1257881416947,            107P    229
-17.2991462923653,0.,-27.1257881416947,-20.2991462923653,5.,         107P    230
-27.1257881416947,-20.2991462923653,0.,-30.1257881416947,            107P    231
-20.2991462923653,5.,-30.1257881416947,-20.2991462923653,0.,         107P    232
-33.1257881416947,-20.2991462923653,5.,-33.1257881416947,            107P    233
-20.2991462923653,0.,-33.1257881416947,-17.2991462923653,5.,         107P    234
-33.1257881416947,-17.2991462923653,0.,-3.33333333333333,            107P    235
-1.66666666666667,-3.14159265358979,3.14159265358979;                107P    236
128,1,8,1,2,0,1,0,0,1,-0.05,-0.05,0.05,0.05,-3.14159265358979,       109P    237
-3.14159265358979,-3.14159265358979,-1.5707963267949,                109P    238
-1.5707963267949,0.,0.,1.5707963267949,1.5707963267949,              109P    239
3.14159265358979,3.14159265358979,3.14159265358979,1.,1.,            109P    240
0.707106781186548,0.707106781186548,1.,1.,0.707106781186548,         109P    241
0.707106781186548,1.,1.,0.707106781186548,0.707106781186548,1.,      109P    242
1.,0.707106781186548,0.707106781186548,1.,1.,-50.,0.,5.,-50.,0.,     109P    243
0.,-50.,-50.,5.,-50.,-50.,0.,0.,-50.,5.,0.,-50.,0.,50.,-50.,5.,      109P    244
50.,-50.,0.,50.,0.,5.,50.,0.,0.,50.,50.,5.,50.,50.,0.,0.,50.,5.,     109P    245
0.,50.,0.,-50.,50.,5.,-50.,50.,0.,-50.,0.,5.,-50.,0.,0.,-0.05,       109P    246
0.05,-3.14159265358979,3.14159265358979;                             109P    247
128,1,1,1,1,0,0,1,0,0,-5.001,-5.001,5.001,5.001,-5.001,-5.001,       111P    248
5.001,5.001,1.,1.,1.,1.,50.01,-50.01,0.,-50.01,-50.01,0.,50.01,      111P    249
50.01,0.,-50.01,50.01,0.,-5.001,5.001,-5.001,5.001;                  111P    250
128,1,1,1,1,0,0,1,0,0,-5.001,-5.001,5.001,5.001,-5.001,-5.001,       113P    251
5.001,5.001,1.,1.,1.,1.,-50.01,-50.01,5.,50.01,-50.01,5.,-50.01,     113P    252
50.01,5.,50.01,50.01,5.,-5.001,5.001,-5.001,5.001;                   113P    253
128,1,8,1,2,0,1,0,0,1,-3.33333333333333,-3.33333333333333,           115P    254
-1.66666666666667,-1.66666666666667,-3.14159265358979,               115P    255
-3.14159265358979,-3.14159265358979,-1.5707963267949,                115P    256
-1.5707963267949,0.,0.,1.5707963267949,1.5707963267949,              115P    257
3.14159265358979,3.14159265358979,3.14159265358979,1.,1.,            115P    258
0.707106781186548,0.707106781186548,1.,1.,0.707106781186548,         115P    259
0.707106781186548,1.,1.,0.707106781186548,0.707106781186548,1.,      115P    260
1.,0.707106781186548,0.707106781186548,1.,1.,6.2160343198494,        115P    261
-36.8502268620907,5.,6.2160343198494,-36.8502268620907,0.,           115P    262
3.36286477096394,-35.9231758789659,5.,3.36286477096394,              115P    263
-35.9231758789659,0.,4.28991575408879,-33.0700063300804,5.,          115P    264
4.28991575408879,-33.0700063300804,0.,5.21696673721363,              115P    265
-30.216836781195,5.,5.21696673721363,-30.216836781195,0.,            115P    266
8.07013628609909,-31.1438877643198,5.,8.07013628609909,              115P    267
-31.1438877643198,0.,10.9233058349845,-32.0709387474447,5.,          115P    268
10.9233058349845,-32.0709387474447,0.,9.9962548518597,               115P    269
-34.9241082963301,5.,9.9962548518597,-34.9241082963301,0.,           115P    270
9.06920386873486,-37.7772778452156,5.,9.06920386873486,              115P    271
-37.7772778452156,0.,6.2160343198494,-36.8502268620907,5.,           115P    272
6.2160343198494,-36.8502268620907,0.,-3.33333333333333,              115P    273
-1.66666666666667,-3.14159265358979,3.14159265358979;                115P    274
128,1,8,1,2,0,1,0,0,1,-3.33333333333333,-3.33333333333333,           117P    275
-1.66666666666667,-1.66666666666667,-3.14159265358979,               117P    276
-3.14159265358979,-3.14159265358979,-1.5707963267949,                117P    277
-1.5707963267949,0.,0.,1.5707963267949,1.5707963267949,              117P    278
3.14159265358979,3.14159265358979,3.14159265358979,1.,1.,            117P    279
0.707106781186548,0.707106781186548,1.,1.,0.707106781186548,         117P    280
0.707106781186548,1.,1.,0.707106781186548,0.707106781186548,1.,      117P    281
1.,0.707106781186548,0.707106781186548,1.,1.,36.9675086265975,       117P    282
-5.47554640155115,5.,36.9675086265975,-5.47554640155115,0.,          117P    283
35.2041528697201,-7.90259738467599,5.,35.2041528697201,              117P    284
-7.90259738467599,0.,32.7771018865952,-6.13924162779857,5.,          117P    285
32.7771018865952,-6.13924162779857,0.,30.3500509034704,              117P    286
-4.37588587092115,5.,30.3500509034704,-4.37588587092115,0.,          117P    287
32.1134066603478,-1.94883488779631,5.,32.1134066603478,              117P    288
-1.94883488779631,0.,33.8767624172252,0.478216095328533,5.,          117P    289
33.8767624172252,0.478216095328533,0.,36.3038134003501,              117P    290
-1.28513966154889,5.,36.3038134003501,-1.28513966154889,0.,          117P    291
38.7308643834749,-3.04849541842631,5.,38.7308643834749,              117P    292
-3.04849541842631,0.,36.9675086265975,-5.47554640155115,5.,          117P    293
36.9675086265975,-5.47554640155115,0.,-3.33333333333333,             117P    294
-1.66666666666667,-3.14159265358979,3.14159265358979;                117P    295
128,1,8,1,2,0,1,0,0,1,-3.33333333333333,-3.33333333333333,           119P    296
-1.66666666666667,-1.66666666666667,-3.14159265358979,               119P    297
-3.14159265358979,-3.14159265358979,-1.5707963267949,                119P    298
-1.5707963267949,0.,0.,1.5707963267949,1.5707963267949,              119P    299
3.14159265358979,3.14159265358979,3.14159265358979,1.,1.,            119P    300
0.707106781186548,0.707106781186548,1.,1.,0.707106781186548,         119P    301
0.707106781186548,1.,1.,0.707106781186548,0.707106781186548,1.,      119P    302
1.,0.707106781186548,0.707106781186548,1.,1.,16.6311424907928,       119P    303
33.466153078955,5.,16.6311424907928,33.466153078955,0.,              119P    304
18.3944982476702,31.0391020958301,5.,18.3944982476702,               119P    305
31.0391020958301,0.,15.9674472645454,29.2757463389527,5.,            119P    306
15.9674472645454,29.2757463389527,0.,13.5403962814205,               119P    307
27.5123905820753,5.,13.5403962814205,27.5123905820753,0.,            119P    308
11.7770405245431,29.9394415652001,5.,11.7770405245431,               119P    309
29.9394415652001,0.,10.0136847676657,32.366492548325,5.,             119P    310
10.0136847676657,32.366492548325,0.,12.4407357507905,                119P    311
34.1298483052024,5.,12.4407357507905,34.1298483052024,0.,            119P    312
14.8677867339154,35.8932040620798,5.,14.8677867339154,               119P    313
35.8932040620798,0.,16.6311424907928,33.466153078955,5.,             119P    314
16.6311424907928,33.466153078955,0.,-3.33333333333333,               119P    315
-1.66666666666667,-3.14159265358979,3.14159265358979;                119P    316
128,1,8,1,2,0,1,0,0,1,-3.33333333333333,-3.33333333333333,           121P    317
-1.66666666666667,-1.66666666666667,-3.14159265358979,               121P    318
-3.14159265358979,-3.14159265358979,-1.5707963267949,                121P    319
-1.5707963267949,0.,0.,1.5707963267949,1.5707963267949,              121P    320
3.14159265358979,3.14159265358979,3.14159265358979,1.,1.,            121P    321
0.707106781186548,0.707106781186548,1.,1.,0.707106781186548,         121P    322
0.707106781186548,1.,1.,0.707106781186548,0.707106781186548,1.,      121P    323
1.,0.707106781186548,0.707106781186548,1.,1.,-26.688897295545,       121P    324
26.1587664770523,5.,-26.688897295545,26.1587664770523,0.,            121P    325
-23.8357277466595,27.0858174601771,5.,-23.8357277466595,             121P    326
27.0858174601771,0.,-22.9086767635347,24.2326479112916,5.,           121P    327
-22.9086767635347,24.2326479112916,0.,-21.9816257804098,             121P    328
21.3794783624062,5.,-21.9816257804098,21.3794783624062,0.,           121P    329
-24.8347953292953,20.4524273792813,5.,-24.8347953292953,             121P    330
20.4524273792813,0.,-27.6879648781807,19.5253763961565,5.,           121P    331
-27.6879648781807,19.5253763961565,0.,-28.6150158613056,             121P    332
22.378545945042,5.,-28.6150158613056,22.378545945042,0.,             121P    333
-29.5420668444304,25.2317154939274,5.,-29.5420668444304,             121P    334
25.2317154939274,0.,-26.688897295545,26.1587664770523,5.,            121P    335
-26.688897295545,26.1587664770523,0.,-3.33333333333333,              121P    336
-1.66666666666667,-3.14159265358979,3.14159265358979;                121P    337
502,19,-27.1257881416947,-17.2991462923653,5.,-33.1257881416947,     123P    338
-17.2991462923653,5.,-33.1257881416947,-17.2991462923653,0.,50.,     123P    339
0.,5.,-50.,0.,5.,-50.,0.,0.,50.,0.,0.,-26.688897295545,              123P    340
26.1587664770523,0.,16.6311424907928,33.466153078955,0.,             123P    341
36.9675086265975,-5.47554640155115,0.,6.2160343198494,               123P    342
-36.8502268620907,0.,-24.8347953292953,20.4524273792813,5.,          123P    343
-26.688897295545,26.1587664770523,5.,11.7770405245431,               123P    344
29.9394415652001,5.,16.6311424907928,33.466153078955,5.,             123P    345
32.1134066603478,-1.94883488779631,5.,36.9675086265975,              123P    346
-5.47554640155115,5.,8.07013628609909,-31.1438877643198,5.,          123P    347
6.2160343198494,-36.8502268620907,5.;                                123P    348
504,25,57,123,1,123,2,59,123,2,123,1,61,123,2,123,3,63,123,3,        125P    349
123,3,65,123,4,123,5,67,123,5,123,4,69,123,5,123,6,71,123,7,123,     125P    350
6,73,123,6,123,7,75,123,8,123,8,77,123,9,123,9,79,123,10,123,10,     125P    351
81,123,11,123,11,83,123,12,123,13,85,123,13,123,12,87,123,14,        125P    352
123,15,89,123,15,123,14,91,123,16,123,17,93,123,17,123,16,95,        125P    353
123,18,123,19,97,123,19,123,18,99,123,19,123,11,101,123,17,123,      125P    354
10,103,123,15,123,9,105,123,13,123,8;                                125P    355
406,1,5HBody2;                                                       127P    356
314,62.7450980392157,62.7450980392157,62.7450980392157,13HSteel      129P    357
- Satin;                                                             129P    358
S      1G      3D    130P    358                                        T      1
