                                                                        S      1
,,10HSwitch Top,10HSwitch Top,7Hunknown,7Hunknown,32,38,7,99,15,,1.,2,2HG      1
MM,1,0.08,15H20190424.150245,0.01,10000.,14Hcomputerboy586,7Hunknown,11,G      2
0,15H20190419.125149;                                                   G      3
     186       1                                                00000000D      1
     186             -57       1       0                               0D      2
     514       2                                                00010000D      3
     514                       1       1                               0D      4
     510       3                                                00010000D      5
     510             -57       1       1                               0D      6
     510       4                                                00010000D      7
     510             -57       1       1                               0D      8
     510       5                                                00010000D      9
     510             -57       1       1                               0D     10
     510       6                                                00010000D     11
     510             -57       1       1                               0D     12
     508       7                                                00010000D     13
     508                       1       1                               0D     14
     508       8                                                00010000D     15
     508                       2       1                               0D     16
     508      10                                                00010000D     17
     508                       1       1                               0D     18
     508      11                                                00010000D     19
     508                       1       1                               0D     20
     508      12                                                00010000D     21
     508                       1       1                               0D     22
     508      13                                                00010000D     23
     508                       1       1                               0D     24
     126      14                                                00010000D     25
     126       0               5       0                               0D     26
     126      19                                                00010000D     27
     126       0               7       0                               0D     28
     126      26                                                00010000D     29
     126       0               3       0                               0D     30
     126      29                                                00010000D     31
     126       0               9       0                               0D     32
     126      38                                                00010000D     33
     126       0               5       0                               0D     34
     126      43                                                00010000D     35
     126       0               7       0                               0D     36
     126      50                                                00010000D     37
     126       0               2       0                               0D     38
     126      52                                                00010000D     39
     126       0               5       0                               0D     40
     126      57                                                00010000D     41
     126       0               7       0                               0D     42
     128      64                                                00010000D     43
     128       0     -57      14       0                               0D     44
     128      78                                                00010000D     45
     128       0     -57      11       0                               0D     46
     128      89                                                00010000D     47
     128       0     -57       3       0                               0D     48
     128      92                                                00010000D     49
     128       0     -57       3       0                               0D     50
     502      95                                                00010000D     51
     502                       2       1                               0D     52
     504      97                                                00010001D     53
     504                       2       1                               0D     54
     406      99                                                00000000D     55
     406                       1      15                               0D     56
     314     100                                                00000200D     57
     314                       2       0                               0D     58
186,3,1,0,0,1,55;                                                      1P      1
514,4,5,1,7,1,9,1,11,1;                                                3P      2
510,43,1,1,13;                                                         5P      3
510,45,1,1,15;                                                         7P      4
510,47,2,1,17,19;                                                      9P      5
510,49,2,1,21,23;                                                     11P      6
508,5,0,53,1,0,0,0,53,2,0,0,0,53,3,1,0,0,53,4,0,0,0,53,3,0,0;         13P      7
508,6,0,53,5,0,0,0,53,6,0,0,0,53,7,1,0,0,53,8,0,0,0,53,9,0,0,0,       15P      8
53,7,0,0;                                                             15P      9
508,2,0,53,8,1,0,0,53,9,1,0;                                          17P     10
508,1,0,53,4,1,0;                                                     19P     11
508,2,0,53,5,1,0,0,53,6,1,0;                                          21P     12
508,2,0,53,1,1,0,0,53,2,1,0;                                          23P     13
126,4,2,0,0,0,0,0.,0.,0.,1.5707963267949,1.5707963267949,             25P     14
3.14159265358979,3.14159265358979,3.14159265358979,1.,                25P     15
0.707106781186547,1.,0.707106781186548,1.,6.5,0.,5.,6.5,-6.5,5.,      25P     16
-1.5510757065368D-15,-6.5,5.,-6.5,-6.5,5.,-6.5,                       25P     17
-7.9602041944578D-16,5.,0.,3.14159265358979,0.,0.,0.;                 25P     18
126,4,2,0,0,0,0,3.14159265358979,3.14159265358979,                    27P     19
3.14159265358979,4.71238898038469,4.71238898038469,                   27P     20
6.28318530717959,6.28318530717959,6.28318530717959,1.,                27P     21
0.707106781186548,1.,0.707106781186548,1.,-6.5,                       27P     22
-7.9602041944578D-16,5.,-6.5,6.5,5.,-3.14311654542836D-15,6.5,        27P     23
5.,6.5,6.5,5.,6.5,1.59204083889156D-15,5.,3.14159265358979,           27P     24
6.28318530717959,0.,0.,0.;                                            27P     25
126,1,1,0,0,1,0,-1.53846153846154,-1.53846153846154,                  29P     26
-0.769230769230769,-0.769230769230769,1.,1.,-6.5,0.,5.,-6.5,0.,       29P     27
0.,-1.53846153846154,-0.769230769230769,0.,0.,0.;                     29P     28
126,8,2,0,1,0,0,-3.14159265358979,-3.14159265358979,                  31P     29
-3.14159265358979,-1.5707963267949,-1.5707963267949,0.,0.,            31P     30
1.5707963267949,1.5707963267949,3.14159265358979,                     31P     31
3.14159265358979,3.14159265358979,1.,0.707106781186548,1.,            31P     32
0.707106781186547,1.,0.707106781186547,1.,0.707106781186548,1.,       31P     33
-6.5,-7.9602041944578D-16,0.,-6.5,-6.5,0.,-1.5510757065368D-15,       31P     34
-6.5,0.,6.5,-6.5,0.,6.5,0.,0.,6.5,6.5,0.,-1.5510757065368D-15,        31P     35
6.5,0.,-6.5,6.5,0.,-6.5,7.9602041944578D-16,0.,                       31P     36
-3.14159265358979,3.14159265358979,0.,0.,0.;                          31P     37
126,4,2,0,0,0,0,0.,0.,0.,1.5707963267949,1.5707963267949,             33P     38
3.14159265358979,3.14159265358979,3.14159265358979,1.,                33P     39
0.707106781186547,1.,0.707106781186548,1.,50.,0.,5.,50.,50.,5.,       33P     40
3.06161699786838D-15,50.,5.,-50.,50.,5.,-50.,                         33P     41
6.12323399573677D-15,5.,0.,3.14159265358979,0.,0.,0.;                 33P     42
126,4,2,0,0,0,0,3.14159265358979,3.14159265358979,                    35P     43
3.14159265358979,4.71238898038469,4.71238898038469,                   35P     44
6.28318530717959,6.28318530717959,6.28318530717959,1.,                35P     45
0.707106781186548,1.,0.707106781186548,1.,-50.,                       35P     46
6.12323399573677D-15,5.,-50.,-50.,5.,-9.18485099360515D-15,-50.,      35P     47
5.,50.,-50.,5.,50.,-1.22464679914735D-14,5.,3.14159265358979,         35P     48
6.28318530717959,0.,0.,0.;                                            35P     49
126,1,1,0,0,1,0,-0.05,-0.05,0.05,0.05,1.,1.,-50.,0.,5.,-50.,0.,       37P     50
0.,-0.05,0.05,0.,0.,0.;                                               37P     51
126,4,2,0,0,0,0,0.,0.,0.,1.5707963267949,1.5707963267949,             39P     52
3.14159265358979,3.14159265358979,3.14159265358979,1.,                39P     53
0.707106781186547,1.,0.707106781186548,1.,50.,0.,0.,50.,-50.,0.,      39P     54
3.06161699786838D-15,-50.,0.,-50.,-50.,0.,-50.,                       39P     55
-6.12323399573677D-15,0.,0.,3.14159265358979,0.,0.,0.;                39P     56
126,4,2,0,0,0,0,3.14159265358979,3.14159265358979,                    41P     57
3.14159265358979,4.71238898038469,4.71238898038469,                   41P     58
6.28318530717959,6.28318530717959,6.28318530717959,1.,                41P     59
0.707106781186548,1.,0.707106781186548,1.,-50.,                       41P     60
-6.12323399573677D-15,0.,-50.,50.,0.,-9.18485099360515D-15,50.,       41P     61
0.,50.,50.,0.,50.,1.22464679914735D-14,0.,3.14159265358979,           41P     62
6.28318530717959,0.,0.,0.;                                            41P     63
128,1,8,1,2,0,1,0,0,1,-1.53846153846154,-1.53846153846154,            43P     64
-0.769230769230769,-0.769230769230769,-3.14159265358979,              43P     65
-3.14159265358979,-3.14159265358979,-1.5707963267949,                 43P     66
-1.5707963267949,0.,0.,1.5707963267949,1.5707963267949,               43P     67
3.14159265358979,3.14159265358979,3.14159265358979,1.,1.,             43P     68
0.707106781186548,0.707106781186548,1.,1.,0.707106781186548,          43P     69
0.707106781186548,1.,1.,0.707106781186548,0.707106781186548,1.,       43P     70
1.,0.707106781186548,0.707106781186548,1.,1.,-6.5,0.,5.,-6.5,0.,      43P     71
0.,-6.5,6.5,5.,-6.5,6.5,0.,-1.94908591625969D-15,6.5,5.,              43P     72
-1.94908591625969D-15,6.5,0.,6.5,6.5,5.,6.5,6.5,0.,6.5,0.,5.,         43P     73
6.5,0.,0.,6.5,-6.5,5.,6.5,-6.5,0.,-1.94908591625969D-15,-6.5,5.,      43P     74
-1.94908591625969D-15,-6.5,0.,-6.5,-6.5,5.,-6.5,-6.5,0.,-6.5,0.,      43P     75
5.,-6.5,0.,0.,-1.53846153846154,-0.769230769230769,                   43P     76
-3.14159265358979,3.14159265358979;                                   43P     77
128,1,8,1,2,0,1,0,0,1,-0.05,-0.05,0.05,0.05,-3.14159265358979,        45P     78
-3.14159265358979,-3.14159265358979,-1.5707963267949,                 45P     79
-1.5707963267949,0.,0.,1.5707963267949,1.5707963267949,               45P     80
3.14159265358979,3.14159265358979,3.14159265358979,1.,1.,             45P     81
0.707106781186548,0.707106781186548,1.,1.,0.707106781186548,          45P     82
0.707106781186548,1.,1.,0.707106781186548,0.707106781186548,1.,       45P     83
1.,0.707106781186548,0.707106781186548,1.,1.,-50.,0.,5.,-50.,0.,      45P     84
0.,-50.,-50.,5.,-50.,-50.,0.,0.,-50.,5.,0.,-50.,0.,50.,-50.,5.,       45P     85
50.,-50.,0.,50.,0.,5.,50.,0.,0.,50.,50.,5.,50.,50.,0.,0.,50.,5.,      45P     86
0.,50.,0.,-50.,50.,5.,-50.,50.,0.,-50.,0.,5.,-50.,0.,0.,-0.05,        45P     87
0.05,-3.14159265358979,3.14159265358979;                              45P     88
128,1,1,1,1,0,0,1,0,0,-5.001,-5.001,5.001,5.001,-5.001,-5.001,        47P     89
5.001,5.001,1.,1.,1.,1.,50.01,-50.01,0.,-50.01,-50.01,0.,50.01,       47P     90
50.01,0.,-50.01,50.01,0.,-5.001,5.001,-5.001,5.001;                   47P     91
128,1,1,1,1,0,0,1,0,0,-5.001,-5.001,5.001,5.001,-5.001,-5.001,        49P     92
5.001,5.001,1.,1.,1.,1.,-50.01,-50.01,5.,50.01,-50.01,5.,-50.01,      49P     93
50.01,5.,50.01,50.01,5.,-5.001,5.001,-5.001,5.001;                    49P     94
502,7,6.5,0.,5.,-6.5,0.,5.,-6.5,-7.9602041944578D-16,0.,50.,0.,       51P     95
5.,-50.,0.,5.,-50.,0.,0.,50.,0.,0.;                                   51P     96
504,9,25,51,1,51,2,27,51,2,51,1,29,51,2,51,3,31,51,3,51,3,33,51,      53P     97
4,51,5,35,51,5,51,4,37,51,5,51,6,39,51,7,51,6,41,51,6,51,7;           53P     98
406,1,5HBody2;                                                        55P     99
314,62.7450980392157,62.7450980392157,62.7450980392157,13HSteel       57P    100
- Satin;                                                              57P    101
S      1G      3D     58P    101                                        T      1
